<svg width="256" height="256" xmlns="http://www.w3.org/2000/svg">
    <path d="M128 226c-13.27 0-25.936-2.584-37.994-7.752-12.059-5.168-22.49-12.154-31.295-20.959-8.805-8.805-15.791-19.236-20.959-31.295C32.584 153.936 30 141.271 30 128c0-13.27 2.584-25.936 7.752-37.994 5.168-12.059 12.154-22.49 20.959-31.295 8.805-8.805 19.236-15.791 31.295-20.959C102.064 32.584 114.729 30 128 30c13.27 0 25.936 2.584 37.994 7.752 12.059 5.168 22.49 12.154 31.295 20.959 8.805 8.805 15.791 19.236 20.959 31.295C223.416 102.064 226 114.729 226 128c0 13.27-2.584 25.936-7.752 37.994-5.168 12.059-12.154 22.49-20.959 31.295-8.805 8.805-19.236 15.791-31.295 20.959C153.936 223.416 141.271 226 128 226zm0-16c11.104 0 21.701-2.162 31.791-6.486 10.09-4.325 18.818-10.17 26.186-17.537 7.367-7.368 13.212-16.096 17.537-26.186C207.838 149.701 210 139.104 210 128s-2.162-21.701-6.486-31.791c-4.325-10.09-10.17-18.818-17.537-26.186-7.368-7.367-16.096-13.212-26.186-17.537-7.694-3.297-11.507-5.337-19.791-6.12v71.125a3.998 3.998 0 0 1-3.99 4.009h-16.02a3.995 3.995 0 0 1-3.99-4.008v-71.13c-8.2 0-12.082 2.82-19.791 6.124-10.09 4.325-18.818 10.17-26.186 17.537-7.367 7.368-13.212 16.096-17.537 26.186C48.162 106.299 46 116.896 46 128s2.162 21.701 6.486 31.791c4.325 10.09 10.17 18.818 17.537 26.186 7.368 7.367 16.096 13.212 26.186 17.537C106.299 207.838 116.896 210 128 210z" fill="#000" fill-rule="nonzero"/>
</svg>
