<svg width="256" height="256" xmlns="http://www.w3.org/2000/svg">
    <g fill="none" fill-rule="evenodd">
        <path d="M128 231c-8.667 0-16.95-1.71-24.85-5.13-7.9-3.42-14.7-7.996-20.4-13.73-5.7-5.733-10.25-12.573-13.65-20.52-3.4-7.946-5.1-16.278-5.1-24.995v-77.25c0-8.717 1.7-17.05 5.1-24.996 3.4-7.946 7.95-14.786 13.65-20.52 5.7-5.733 12.5-10.31 20.4-13.73C111.05 26.71 119.333 25 128 25c8.667 0 16.95 1.71 24.85 5.13 7.9 3.42 14.7 7.996 20.4 13.73 5.7 5.733 10.25 12.573 13.65 20.52 3.4 7.946 5.1 16.278 5.1 24.995v77.25c0 8.717-1.7 17.05-5.1 24.996-3.4 7.946-7.95 14.786-13.65 20.52-5.7 5.733-12.5 10.31-20.4 13.73C144.95 229.29 136.667 231 128 231z" fill="#000" fill-rule="nonzero"/>
        <path d="M127.936 213c6.508 0 12.72-1.36 18.634-4.08 5.914-2.72 11.03-6.397 15.349-11.032 4.318-4.634 7.744-10.125 10.279-16.472 2.535-6.346 3.802-13.012 3.802-19.997v-31.47c-3.802 5.44-16.147 16.472-23.281 19.947-7.135 3.476-17.96 5.642-24.468 5.642-6.509 0-13.88 1.514-29.229-7.657-15.349-9.17-24.032-25.387-19.15-18.537v32.075c0 6.985 1.267 13.65 3.801 19.997 2.535 6.347 5.962 11.838 10.28 16.472 4.318 4.635 9.434 8.312 15.348 11.032a44.085 44.085 0 0 0 18.635 4.08z" fill="#FFF"/>
        <path d="M128 138c6.5 0 12.703-1.266 18.61-3.797 5.906-2.531 11.015-5.953 15.327-10.266 4.313-4.312 7.735-9.421 10.266-15.328C174.734 102.703 176 96.5 176 90c0-6.5-1.266-12.703-3.797-18.61-2.531-5.906-5.953-11.015-10.266-15.328-4.312-4.312-9.421-7.734-15.328-10.265C140.703 43.266 134.5 42 128 42c-6.5 0-12.703 1.266-18.61 3.797-5.906 2.531-11.015 5.953-15.328 10.266-4.312 4.312-7.734 9.421-10.265 15.328C81.266 77.297 80 83.5 80 90c0 6.5 1.266 12.703 3.797 18.61 2.531 5.906 5.953 11.015 10.266 15.328 4.312 4.312 9.421 7.734 15.328 10.265C115.297 136.734 121.5 138 128 138z" fill="#FFF"/>
    </g>
</svg>
