<svg width="256" height="256" xmlns="http://www.w3.org/2000/svg">
    <path d="M39.723 193.132c.283-8.428-.284-102.83-.284-112.335 0-9.505 8.156-17.14 17.993-17.327 9.837-.188 55.149.172 55.149.172 1.103.008 2.644.63 3.45 1.39l34.483 32.477c1.206 1.136 3.534 2.06 5.196 2.06h46.823c7.174 0 12.552 5.312 12 11.865 0 0 1.2 18.088 1 36.787-.2 18.699 0 43.91 0 48.408 0 4.497-8.46 11.442-15.84 10.883-7.38-.56-132.898.813-142.362.813-9.464 0-17.892-6.765-17.608-15.193zm18.053-110.71l.235 16.507a2.03 2.03 0 0 0 2.024 2.002l65.144-.08c2.208-.003 2.696-1.233 1.085-2.748l-17.935-16.859c-.808-.76-2.36-1.366-3.466-1.354l-45.114.505a1.995 1.995 0 0 0-1.973 2.027zm4.046 109.177l135.996.73a1.952 1.952 0 0 0 1.98-1.98l-.922-71.163a2.01 2.01 0 0 0-2.018-1.977l-135.05.894a2.011 2.011 0 0 0-1.992 2.016v69.466c0 1.1.899 2.008 2.006 2.014z" fill-rule="evenodd"/>
</svg>
