<svg width="256" height="256" xmlns="http://www.w3.org/2000/svg">
    <path d="M47.174 74.383c0-9.94 8.067-17.87 17.997-17.712l21.398.34s4.011-10.206 17.826-10.206c13.814 0 16.6 9.58 16.6 9.58h23.35c8.841 0 16.066 7.169 16.137 16.007l.123 15.5 11.998-.08c2.206-.015 5.354 1.143 7.02 2.577l27.06 23.28c1.671 1.439 3.026 4.403 3.026 6.608v85.158a3.984 3.984 0 0 1-4.005 3.985l-106.865-.5a4.98 4.98 0 0 1-4.953-5.025l.247-27.695-30.963.195A15.87 15.87 0 0 1 47.174 160.5V74.383zM104 72c4.418 0 8-3.134 8-7s-3.582-7-8-7-8 3.134-8 7 3.582 7 8 7zm-39.622 2.883l1.193 82.848a2.004 2.004 0 0 0 2.037 1.973l23.907-.298a2.043 2.043 0 0 0 2.017-2.023l.23-53.884a15.692 15.692 0 0 1 16.06-15.678l32.068.64a1.975 1.975 0 0 0 2.014-1.966l.12-11.571a2.042 2.042 0 0 0-1.986-2.051l-20.593-.477s-4.914 10.667-17.418 10.667-17.133-11.101-17.133-11.101l-20.544.84a2.067 2.067 0 0 0-1.972 2.08zm107.671 33.413c-1.674-1.437-2.943-.822-2.833 1.401l.727 14.677c.11 2.21 1.986 4.01 4.198 4.017l17.418.062c2.209.008 2.647-1.146.968-2.587l-20.478-17.57zm-59.97-3.415l-.326 88.575 80.378.57V144.46h-32.189c-4.418 0-8.019-3.575-8.041-8.007l-.167-32.275-39.656.704z" fill-rule="evenodd"/>
</svg>
