<svg width="256" height="256" xmlns="http://www.w3.org/2000/svg">
    <path d="M80 52.004A4.002 4.002 0 0 0 75.996 48H52.004A4.002 4.002 0 0 0 48 52.004v23.992A4.002 4.002 0 0 0 52.004 80h23.992A4.002 4.002 0 0 0 80 75.996V52.004zm32 64a4.002 4.002 0 0 0-4.004-4.004H84.004A4.002 4.002 0 0 0 80 116.004v23.992A4.002 4.002 0 0 0 84.004 144h23.992a4.002 4.002 0 0 0 4.004-4.004v-23.992zm32 64a4.002 4.002 0 0 0-4.004-4.004h-23.992a4.002 4.002 0 0 0-4.004 4.004v23.992a4.002 4.002 0 0 0 4.004 4.004h23.992a4.002 4.002 0 0 0 4.004-4.004v-23.992zm32-64a4.002 4.002 0 0 0-4.004-4.004h-23.992a4.002 4.002 0 0 0-4.004 4.004v23.992a4.002 4.002 0 0 0 4.004 4.004h23.992a4.002 4.002 0 0 0 4.004-4.004v-23.992zm32-64A4.002 4.002 0 0 0 203.996 48h-23.992A4.002 4.002 0 0 0 176 52.004v23.992A4.002 4.002 0 0 0 180.004 80h23.992A4.002 4.002 0 0 0 208 75.996V52.004z" fill-rule="evenodd"/>
</svg>
