<svg width="256" height="256" xmlns="http://www.w3.org/2000/svg">
    <path d="M52.512 90.498a3.994 3.994 0 0 0-3.994 4v8.395c0 2.209 1.786 4 3.994 4H178.17c1.105 0 1.359.625.565 1.398l-12.907 12.555c-1.58 1.537-1.62 4.076-.084 5.675l5.174 5.39a3.865 3.865 0 0 0 5.58.037l31.342-31.919a2.032 2.032 0 0 0-.011-2.853l-31.315-31.463c-1.557-1.565-4.019-1.498-5.499.15l-5.368 5.975a4.037 4.037 0 0 0 .278 5.677l12.765 11.633c.818.746.589 1.35-.52 1.35H52.512zm151.738 60a3.994 3.994 0 0 1 3.994 4v8.395c0 2.209-1.786 4-3.994 4H78.592c-1.106 0-1.36.625-.565 1.398l12.907 12.555c1.58 1.537 1.619 4.076.084 5.675l-5.174 5.39a3.865 3.865 0 0 1-5.581.037l-31.34-31.919a2.032 2.032 0 0 1 .01-2.853l31.315-31.463c1.557-1.565 4.019-1.498 5.498.15l5.369 5.975a4.037 4.037 0 0 1-.279 5.677l-12.764 11.633c-.819.746-.589 1.35.52 1.35H204.25z" fill-rule="evenodd"/>
</svg>
