<svg width="256" height="256" xmlns="http://www.w3.org/2000/svg">
    <path d="M128.012 64.105c-6.857.003-13.712 3.567-18.938 10.69l-42.357 37.28c-5.36 3.36-11.368 7.187-17.19 7.03H32.04L29.01 119c-2.149.367-3.962 2.35-4.009 4.102v9.902c.62 2.571 1.898 3.651 4.01 4.101l3.03-.105h17.487c5.908.484 13.043 3.495 17.19 7.031l42.357 37.28c10.452 14.246 27.417 14.253 37.89.015l42.483-36.418c5.028-4.31 14.472-7.803 21.106-7.803 5.485.294 10.97.596 16.455.895 2.208 0 3.992-2.79 3.992-4.996v-9.902c0-2.207-1.784-4.997-3.992-4.997-5.485.296-10.97.605-16.455.895-6.634 0-16.078-3.495-21.106-7.805L146.965 74.78c-5.237-7.118-12.097-10.676-18.953-10.674zm.21 18.702c3.143-.005 6.289 1.136 8.692 3.42l41.824 38.753c1.11 1.055 2.407 2.085 3.824 3.073-1.417.987-2.714 2.015-3.824 3.07l-41.824 39.756c-4.807 4.569-12.577 4.56-17.37-.031l-42.47-40.676a28.2 28.2 0 0 0-2.513-2.12 28.194 28.194 0 0 0 2.513-2.118l42.47-39.676c2.397-2.296 5.536-3.447 8.679-3.451z"/>
</svg>
