<svg width="256" height="256" xmlns="http://www.w3.org/2000/svg">
    <path d="M25.101 77.628a4.008 4.008 0 0 0 3.997 4.01h16.996c6.632 0 13.927 5.01 16.3 11.202l52.724 85.231c7.115 18.564 18.693 18.571 25.857.025L193.91 92.84c2.39-6.187 9.693-11.202 16.336-11.202h16.49a4.01 4.01 0 0 0 4-4.01V68.82a4 4 0 0 0-3.994-4.009h-23.508c-8.835 0-18.547 6.702-21.69 14.962l-47.147 73.852c-3.533 9.287-9.217 9.262-12.694-.051L75.2 79.805C72.108 71.524 62.44 64.81 53.6 64.81H29.11a4.012 4.012 0 0 0-4.008 4.01v8.808z" fill-rule="evenodd"/>
</svg>
