<svg width="256" height="256" xmlns="http://www.w3.org/2000/svg">
    <g fill="none" fill-rule="evenodd">
        <path d="M25 128c0-8.667 1.71-16.95 5.13-24.85 3.42-7.9 7.996-14.7 13.73-20.4 5.733-5.7 12.573-10.25 20.52-13.65 7.946-3.4 16.278-5.1 24.995-5.1h77.25c8.717 0 17.05 1.7 24.996 5.1 7.946 3.4 14.786 7.95 20.52 13.65 5.733 5.7 10.31 12.5 13.73 20.4C229.29 111.05 231 119.333 231 128c0 8.667-1.71 16.95-5.13 24.85-3.42 7.9-7.996 14.7-13.73 20.4-5.733 5.7-12.573 10.25-20.52 13.65-7.946 3.4-16.278 5.1-24.995 5.1h-77.25c-8.717 0-17.05-1.7-24.996-5.1-7.946-3.4-14.786-7.95-20.52-13.65-5.733-5.7-10.31-12.5-13.73-20.4C26.71 144.95 25 136.667 25 128z" fill="#000" fill-rule="nonzero"/>
        <path d="M43 127.936c0 6.508 1.36 12.72 4.08 18.634 2.72 5.914 6.397 11.03 11.032 15.349 4.634 4.318 10.125 7.744 16.472 10.279C80.93 174.733 87.596 176 94.58 176h31.47c-5.44-3.802-16.472-16.147-19.947-23.281-3.476-7.135-5.642-17.96-5.642-24.468 0-6.509-1.514-13.88 7.657-29.229 9.17-15.349 25.387-24.032 18.537-19.15H94.58c-6.985 0-13.65 1.267-19.997 3.801-6.347 2.535-11.838 5.962-16.472 10.28-4.635 4.318-8.312 9.434-11.032 15.348A44.085 44.085 0 0 0 43 127.936z" fill="#FFF"/>
        <path d="M118 128c0 6.5 1.266 12.703 3.797 18.61 2.531 5.906 5.953 11.015 10.266 15.327 4.312 4.313 9.421 7.735 15.328 10.266C153.297 174.734 159.5 176 166 176c6.5 0 12.703-1.266 18.61-3.797 5.906-2.531 11.015-5.953 15.327-10.266 4.313-4.312 7.735-9.421 10.266-15.328C212.734 140.703 214 134.5 214 128c0-6.5-1.266-12.703-3.797-18.61-2.531-5.906-5.953-11.015-10.266-15.328-4.312-4.312-9.421-7.734-15.328-10.265C178.703 81.266 172.5 80 166 80c-6.5 0-12.703 1.266-18.61 3.797-5.906 2.531-11.015 5.953-15.327 10.266-4.313 4.312-7.735 9.421-10.266 15.328C119.266 115.297 118 121.5 118 128z" fill="#FFF"/>
    </g>
</svg>
