<svg width="256" height="256" xmlns="http://www.w3.org/2000/svg">
    <path d="M48 51.995A4 4 0 0 1 51.996 48H65.52a3.987 3.987 0 0 1 3.984 3.998l-.23 74.785a1 1 0 0 0 1.003 1.01h13.729A3.997 3.997 0 0 1 88 131.796v72.198A4.006 4.006 0 0 1 84 208H52c-2.21 0-4-1.797-4-3.995V51.995zm160-.672c0-1.835-1.51-3.323-3.379-3.323h-13.914c-1.866 0-3.379 1.488-3.379 3.327l.266 75.636a.835.835 0 0 1-.845.83h-15.877c-1.862 0-3.372 1.495-3.372 3.318v73.57c0 1.833 1.514 3.319 3.383 3.319h33.734c1.868 0 3.383-1.482 3.383-3.323V51.323zm-91.735 1.101a4.083 4.083 0 0 1 4.005-4.073l15.441-.275a3.92 3.92 0 0 1 4.005 3.932v75.438c0 .553.452.987 1.005.968l7.29-.247a3.83 3.83 0 0 1 3.989 3.86v72.035a4 4 0 0 1-4 3.996h-39.646a4.017 4.017 0 0 1-4.019-3.996L104 132.027a3.974 3.974 0 0 1 3.987-3.995h7.273c.555 0 1.005-.448 1.005-1.007v-74.6z" fill-rule="evenodd"/>
</svg>
