<svg width="256" height="256" xmlns="http://www.w3.org/2000/svg">
    <path d="M55.618 178.111l75.645-94.377s.03-15.79 12.989-26.864c15.797-13.498 40.626-11.241 53.643 3.201 13.016 14.443 16.545 38.02-1.25 54.93-11.078 10.526-23.552 10.425-23.552 10.425l-94.71 75.646-9.344-9.14-17.266 16.088s-1.429 1.188-2.844-.578c-1.415-1.765-.71-3.282-.71-3.282l17.039-16.203-9.64-9.846zm17.729-1.144l5.687 5.484 75.162-59.15s-8.01-4.416-12.813-9.469c-4.804-5.053-7.58-11.981-7.58-11.981l-60.456 75.116zm75.827-105.668s-13.299 18.34 2.398 33.329c15.698 14.99 33.564 2.4 33.564 2.4s-16.071-3.727-24.79-12.39c-8.72-8.662-11.172-23.34-11.172-23.34zm5.393-4.513s3.702 14.109 12.601 23.073c8.899 8.965 22.874 12.662 22.874 12.662s12.885-19.52-3.271-34.318c-16.157-14.798-32.204-1.417-32.204-1.417z" fill-rule="evenodd"/>
</svg>
