<svg width="256" height="256" xmlns="http://www.w3.org/2000/svg">
    <g fill-rule="evenodd">
        <path d="M46.735 116.622c0-47.684 41.426-69.596 81.994-69.696 40.567-.1 80.92 24.207 80.92 69.292 0 45.086.004 70.408.004 70.408l-4.204 3.418-9.406.045-2.946-3.716s-.485-33.33-.485-70.36c0-37.031-27.957-52.448-64.552-52.481-36.595-.033-64.821 15.18-64.821 52.613v71.228l-3.966 3.393H51.49l-4.755-3.393v-70.75z"/>
        <path d="M147.773 144.92c5.397 0 3.968-.253 15.42-.253 11.454 0 20.303 8.673 20.303 19.444v23.847c0 11.872-9.148 20.76-20.36 20.76-11.214 0-9.847-.135-15.433-.068s-10.349-4.51-10.349-10.51.176-37.786.176-43.587c0-5.8 4.845-9.632 10.243-9.632zm5.214 15.68l.107 32.639s7.836 0 10.124-.043c2.288-.042 5.123-2.588 5.123-5.242 0-2.655.532-18.77.532-21.468 0-2.698-2.388-5.886-5.484-5.992-3.097-.107-10.402.106-10.402.106zm-59.403-15.732c11.228-.048 10.137 0 15.342 0s10.303 4.385 10.385 9.819c.082 5.433 0 38.77-.082 44.005-.081 5.235-4.267 9.885-10.303 9.885-6.035 0-4.906-.196-15.551-.098s-20.162-9.532-20.162-20.48.661-13.256.33-23.772c-.33-10.516 8.813-19.311 20.041-19.36zm-5.253 21.12c0 2.807.093 19.047.093 22.116 0 3.068 2.26 4.918 5.38 4.918s10.077-.045 10.077-.045v-32.65s-7.217-.124-9.964-.124c-2.748 0-5.586 2.98-5.586 5.786z"/>
    </g>
</svg>
