<svg width="256" height="256" xmlns="http://www.w3.org/2000/svg">
    <g fill-rule="evenodd">
        <path d="M70.623 25H185.61c3.528 0 6.391 2.878 6.391 6.428v192.95c0 3.547-2.861 6.427-6.39 6.427H70.622c-3.527 0-6.39-2.878-6.39-6.428V31.427c0-3.547 2.86-6.427 6.39-6.427zm15.382 14.667c-3.316 0-6.005 2.84-6.005 6.354v163.625c0 3.51 2.693 6.354 6.005 6.354h83.99c3.316 0 6.005-2.841 6.005-6.354V46.021c0-3.51-2.693-6.354-6.005-6.354h-83.99z"/>
        <path d="M92.983 120.236c-1.766 0-3.197 1.789-3.197 3.996v8.008c0 2.207 1.43 3.996 3.197 3.996h70.267c1.765 0 3.197-1.79 3.197-3.996v-8.008c0-2.207-1.43-3.996-3.197-3.996H92.983zm0-32.726c-1.766 0-3.197 1.789-3.197 3.996v8.008c0 2.207 1.43 3.996 3.197 3.996h70.267c1.765 0 3.197-1.789 3.197-3.996v-8.008c0-2.207-1.43-3.996-3.197-3.996H92.983zm0-31.726c-1.766 0-3.197 1.79-3.197 3.997v8.007c0 2.207 1.43 3.996 3.197 3.996h70.267c1.765 0 3.197-1.788 3.197-3.996v-8.007c0-2.207-1.43-3.997-3.197-3.997H92.983z"/>
    </g>
</svg>
