<svg width="256" height="256" xmlns="http://www.w3.org/2000/svg">
    <path d="M32 195.996A4.002 4.002 0 0 1 36.01 192H80V52.002A4.005 4.005 0 0 1 84.01 48h39.98a4.022 4.022 0 0 1 4.024 4.007l.472 135.486a4.02 4.02 0 0 0 4.012 4.007h56.504a3.999 3.999 0 0 0 3.998-4.007V52.007A4.01 4.01 0 0 1 197.005 48h22.99c2.212 0 4.065 1.792 4.125 3.992 0 0 .327 7.542-.12 12.008-.09.895-16 0-16 0v139.998a4 4 0 0 1-4.003 4.002h-87.994a4.004 4.004 0 0 1-4.003-4.002V68.002A3.999 3.999 0 0 0 108.004 64h-8.008A4 4 0 0 0 96 68.002V208H36.003A4 4 0 0 1 32 204.004v-8.008z" stroke="#979797" fill-rule="evenodd"/>
</svg>
