<svg width="256" height="256" xmlns="http://www.w3.org/2000/svg">
    <path d="M80.573 123L80.1 98.915C79.513 69.071 91.715 45.5 120 45.5l13.944.014c30.548.588 41.343 23.594 41.93 53.447l.473 24.039h7.646c4.416 0 8.007 3.586 8.007 8.01v84.98c0 4.43-3.585 8.01-8.007 8.01H72.007c-4.416 0-8.007-3.586-8.007-8.01v-84.98c0-4.43 3.585-8.01 8.007-8.01h8.566zm16.39 0h62.657c.033-5.473.104-12.555-.05-20.33l-.078-4.024c-.414-21.015-2.663-34.678-25.194-35.11l-12.405-.358c-28.124-.56-25.578 26.864-25.397 36.052l.08 4.024.387 19.746zM176 143.316c0-2.384-1.547-4.316-3.46-4.316H83.46c-1.911 0-3.46 1.936-3.46 4.316v60.368c0 2.384 1.547 4.316 3.46 4.316h89.08c1.911 0 3.46-1.936 3.46-4.316v-60.368z" fill="#000" fill-rule="evenodd"/>
</svg>
