<svg width="256" height="256" xmlns="http://www.w3.org/2000/svg">
    <g fill-rule="evenodd">
        <path d="M185.377 231H70.39c-3.528 0-6.391-2.878-6.391-6.428V31.622c0-3.547 2.861-6.427 6.39-6.427h114.987c3.527 0 6.39 2.878 6.39 6.428v192.95c0 3.547-2.86 6.427-6.39 6.427zm-15.382-14.667c3.316 0 6.005-2.84 6.005-6.354V46.354c0-3.51-2.693-6.354-6.005-6.354h-83.99C82.69 40 80 42.841 80 46.354v163.625c0 3.51 2.693 6.354 6.005 6.354h83.99z"/>
        <path d="M163.017 135.764c1.766 0 3.197-1.789 3.197-3.996v-8.008c0-2.207-1.43-3.996-3.197-3.996H92.75c-1.765 0-3.197 1.79-3.197 3.996v8.008c0 2.207 1.43 3.996 3.197 3.996h70.267zm0 32.726c1.766 0 3.197-1.789 3.197-3.996v-8.008c0-2.207-1.43-3.996-3.197-3.996H92.75c-1.765 0-3.197 1.789-3.197 3.996v8.008c0 2.207 1.43 3.996 3.197 3.996h70.267zm0 31.726c1.766 0 3.197-1.79 3.197-3.997v-8.007c0-2.207-1.43-3.996-3.197-3.996H92.75c-1.765 0-3.197 1.788-3.197 3.996v8.007c0 2.207 1.43 3.997 3.197 3.997h70.267z"/>
    </g>
</svg>
