<svg width="256" height="256" xmlns="http://www.w3.org/2000/svg">
    <path d="M163.819 107.882c.006 2.204 1.314 5.22 2.922 6.738l6.463 6.098c1.608 1.518 4.309 1.626 6.022.25l9.525-7.65c1.718-1.38 3.113-4.283 3.116-6.496l.078-71.27c.002-2.208-1.303-2.78-2.915-1.277l-22.432 20.91c-1.612 1.502-2.914 4.516-2.908 6.71l.129 45.987zm.547 40.534c.015-2.212 1.4-5.156 3.1-6.58l6.35-5.323c1.698-1.422 4.56-1.565 6.387-.322l8.302 5.646c1.83 1.244 3.326 4.042 3.342 6.258l.51 70.57c.016 2.21-1.32 2.83-2.992 1.374l-22.313-19.423c-1.668-1.452-3.009-4.412-2.994-6.635l.308-45.565z" fill-rule="evenodd"/>
</svg>
