<svg width="256" height="256" xmlns="http://www.w3.org/2000/svg">
    <path d="M76.21 64l.164-16.15h15.24V64l13.847-.443V47.85l14.64-.439v16.145h14.486V47.85h15.324v15.706l15.313.368V47.85h14.643l.14 16.074 4.656.078a7.99 7.99 0 0 1 7.855 8.127l-.069 3.991h16.113v15.764H192.56l.094 13.812h15.907L208 121.091h-15.744l.202 14.523 15.542.64v15.227h-15.625l.184 13.3 15.441.17v14.94h-15.66l-.126 3.94c-.142 4.416-3.837 8.054-8.256 8.127l-4.043.066-.048 16.555h-14.643v-16.097H149.91v16.097h-15.324v-16.097h-14.485v16.097H106.26v-16.097H91.613v16.097H76.374l-.164-16.753h-4.067a7.996 7.996 0 0 1-7.996-7.994v-3.941h-16.36v-14.94h16.36l.236-13.47H47.787v-15.227h16.36V121.09h-16.36v-14.345h16.847V91.99H47.787V77.063h16.596v-4.92c0-4.416 3.58-8.04 8.003-8.095L76.21 64zm3.722 18.052l.579 91.96c.007 1.115.909 2 2.014 1.995l91.836-.375a2.01 2.01 0 0 0 2.005-2.008l.15-91.771a1.984 1.984 0 0 0-1.993-1.996l-92.609.187a1.99 1.99 0 0 0-1.982 2.008z" fill-rule="evenodd"/>
</svg>
