<svg width="256" height="256" xmlns="http://www.w3.org/2000/svg">
    <path d="M25.723 176.132c.283-8.428-.284-85.83-.284-95.335 0-9.505 8.156-17.14 17.993-17.327 9.837-.188 55.149.172 55.149.172 1.103.008 2.622.656 3.4 1.447L120.47 83.86c1.164 1.183 3.452 2.092 5.107 2.03 0 0 44.654-1.705 54.282-1.705 9.628 0 17.035 8.52 17.035 16.647 0 8.127.489 14.842.489 14.842a1.92 1.92 0 0 0 2.109 1.809s.86-.386 15.122-.1c14.263.288 21.126 13.712 14.263 24.258-6.863 10.546-24.24 36.296-28.111 41.618-3.872 5.322-7.694 8.812-15.074 8.253-7.38-.56-132.897.813-142.36.813-9.465 0-17.893-7.765-17.61-16.193zm18.006-93.708l-.71 75.569c-.01 1.113.454 1.25 1.038.316 0 0 18.173-29.148 21.523-33.172 3.35-4.025 7.78-7.653 14.48-7.653s99.329-.614 99.329-.614 1.173-14.187-.386-15.627c-1.559-1.44-61.818-.43-61.818-.43-1.099.018-2.659-.584-3.468-1.344L94.33 81.244c-.808-.76-2.36-1.366-3.466-1.354l-45.114.505a2.054 2.054 0 0 0-2.02 2.03zm9.33 93.533l130.564.154c1.112.001 2.52-.736 3.154-1.647l27.435-39.435c.631-.907.251-1.65-.855-1.653l-132.038-.268c-1.097-.003-2.494.742-3.101 1.662l-26.066 39.518c-.609.923-.2 1.668.908 1.67z" fill-rule="evenodd"/>
</svg>
