<svg width="256" height="256" xmlns="http://www.w3.org/2000/svg">
    <path d="M31.75 129.068l7.588 18.351c.633 1.531 2.491 2.791 4.144 2.815l43.245.607c6.077.086 14.583-3.22 19.008-7.393l32.867-30.996c4.017-3.788 5.72-11.056 3.799-16.245l-11.922-32.21-6.356.202 3.774 8.691c1.757 4.05.57 9.77-2.666 12.793l-40.618 37.924c-3.23 3.016-9.422 5.461-13.851 5.461H31.75zm77.538 30.036c-1.112-3.12-.01-7.442 2.465-9.652l38.921-34.763c1.233-1.101 3.578-2.004 5.227-2.016l61.154-.463c2.214-.017 4.792 1.58 5.76 3.573l3.456 7.12c.481.991-.026 1.808-1.13 1.824l-51.144.765c-2.206.033-5.342 1.252-6.993 2.711l-38.281 33.856c-2.067 1.827-3.076 5.451-2.26 8.076l6.324 20.337c.328 1.055-.31 1.896-1.41 1.877l-9.29-.156c-.556-.01-1.157-.439-1.341-.955l-11.458-32.134z" fill-rule="evenodd"/>
</svg>
