<svg width="256" height="256" xmlns="http://www.w3.org/2000/svg">
    <path d="M55.265 167.072c-.975-1.973-3.388-2.796-5.372-1.847L42 169s22.5 53.5 85.5 56c60-1.5 96.627-48.626 97-96.5.373-47.874-37-95.5-95.5-96-57.5-1-79.556 45.004-79.556 45.004-1.073 1.93-1.944 1.698-1.944-.501V51.997a4 4 0 0 0-4-3.997H37c-2.209 0-4 1.8-4 4.008v48.984A3.998 3.998 0 0 0 36.998 105h50.504a3.995 3.995 0 0 0 3.998-3.993v-6.014c0-2.205-1.79-4.02-4.008-4.053l-25.484-.38c-2.214-.033-3.223-1.679-2.182-3.628C59.826 86.932 78 45 128.5 45.5c49 .5 82.751 41.929 82.5 83.242C208 184 166 211 127.5 210c-54.5 0-72.235-42.928-72.235-42.928z" fill-rule="evenodd"/>
</svg>
