<svg width="256" height="256" xmlns="http://www.w3.org/2000/svg">
    <path d="M71.922 208.45l14.08-37.047 9.293-.155 13.755 35.308 14.05-35.028 9.303.061 13.118 34.854 11.959-14.645-11.002-20.113 10.135.035 6.978 12.248 9.23-12.257 9.074.122-10.784 18.213 10.784 18.83h-9.44l-8.942-12.859-7.695 12.425-18.195-.054-3.61-8.886-12.541-.298-3.955 10.43-17.202-.758-2.976-9.81-13.327.25-2.686 8.846-9.404.288zm13.24-14.775l10.664-.034-5.284-13.918-5.38 13.952zm36.876-.299h10.377L128 179.416l-5.962 13.96zM128 165.854c-32.585 0-59-26.606-59-59.427C69 73.607 95.415 47 128 47s59 26.606 59 59.427c0 32.82-26.415 59.427-59 59.427zm-35.75-23.047l7.102 6.61 9.093 4.196 8.008 2.893 11.15 1.277 10.7-1.277 8.866-2.971 9.633-5.078 6.153-5.505-2.474-1.74-5.4-4.86-5.534-6.032-3.327-5.515-3.89-5.904-4.027-6.067-4.183-5.136-6.517-1.925-7.057 1.925-4.093 5.136-4.87 8.407-5.57 8.556-6.125 7.368-7.637 5.642zm-12.004-22.971c-.007 2.21.69 5.658 1.548 7.68l-.9-2.122c.862 2.031 3.27 4.196 4.062 4.436l-2.501-.759c1.381.42 3.823-.446 5.46-1.94l.106-.096c1.634-1.49 3.852-4.244 4.963-6.165l2.825-4.885a183.839 183.839 0 0 1 4.189-6.824l2.084-3.203c1.207-1.855 3.382-4.687 4.867-6.338l.918-1.019c1.481-1.645 4.225-3.89 6.127-5.013l1.52-.897c1.903-1.123 5.18-2.505 7.307-3.083l.091-.025c2.133-.58 5.647-.869 7.834-.647l-1.281-.13c2.194.222 5.677.954 7.782 1.635l1.01.327c2.103.68 5.192 2.371 6.904 3.78l.187.154c1.709 1.407 4.225 3.94 5.615 5.654l.168.206c1.392 1.715 3.495 4.608 4.698 6.46l.242.374c1.203 1.852 2.97 4.955 3.953 6.938l.064.128a160.26 160.26 0 0 0 3.765 7.06l.145.253c1.099 1.919 3.165 4.813 4.632 6.482l-1.22-1.39c1.459 1.662 4.395 3.347 6.56 3.766l-3.918-.758c2.164.419 4.555-.915 5.34-2.974l-.599 1.57c.785-2.06 1.67-5.507 1.978-7.701l.405-2.887c.307-2.192.342-5.752.08-7.94l-.13-1.08c-.262-2.193-1.053-5.663-1.764-7.747l-.806-2.361c-.712-2.086-2.354-5.216-3.672-6.997l1.117 1.51a400.037 400.037 0 0 1-4.681-6.485l1.121 1.594c-1.268-1.803-3.663-4.415-5.358-5.842l1.267 1.066a580.391 580.391 0 0 1-6.075-5.2l.82.714c-1.663-1.45-4.618-3.403-6.617-4.373l.284.138c-1.99-.966-5.286-2.39-7.345-3.174l1.326.505c-2.066-.788-5.493-1.791-7.655-2.243l1.935.404c-2.162-.45-5.698-.844-7.914-.879l-8.099-.127c-2.21-.035-5.753.321-7.915.794l-.436.096c-2.162.473-5.55 1.601-7.558 2.516l1.935-.882c-2.011.917-5.148 2.637-7.002 3.841l-3.946 2.561c-1.856 1.204-4.548 3.527-6.01 5.185l-.366.413a151.865 151.865 0 0 0-5.1 6.165l-2.55 3.29c-1.354 1.746-3.095 4.825-3.895 6.892l1.105-2.854c-.798 2.06-1.84 5.484-2.324 7.631l.254-1.128c-.486 2.154-.891 5.69-.905 7.905l-.025 3.772c-.014 2.212-.031 5.791-.038 8.008l.012-3.735z" fill-rule="evenodd"/>
</svg>
