<svg width="256" height="256" xmlns="http://www.w3.org/2000/svg">
    <path d="M230.704 99.2a4.004 4.004 0 0 0-4.01-3.995h-50.981c-2.215 0-5.212-1.327-6.693-2.964L155.289 77.08c-17.795-19.65-41.628-16.256-53.234 7.58l-38.736 79.557C60.42 170.172 52.705 175 46.077 175H29.359a3.996 3.996 0 0 0-3.994 3.995v10.01A4 4 0 0 0 29.372 193h24.7c8.835 0 19.208-6.395 23.174-14.293l43.645-86.914c3.964-7.894 12.233-9.228 18.473-2.974l17.184 17.219c3.123 3.13 9.242 5.667 13.647 5.667H226.7a4.005 4.005 0 0 0 4.004-3.994v-8.512z" fill-rule="evenodd"/>
</svg>
