<svg width="256" height="256" xmlns="http://www.w3.org/2000/svg">
    <path d="M129.042 230.413c14.807.56 24.14-9.993 24.14-20.644 0-10.652-10.127-19.1-15.966-19.1 0-6.462 0-34.093-.022-39.406 5.368-1.812 8.29-1.81 17.39-5.088 9.097-3.278 8.624-2.793 15.03-8.938 6.407-6.144 7.441-24.457 7.441-30.875 3.484-.18 13.856.036 13.856.036l-.422-33.11-37.406.393v32.078h11.25c0 3.828.86 12.614-1.518 18.645-2.377 6.031-2.992 5.485-9.732 8.245-6.74 2.759-15.94 4.323-15.94 4.323s-.36-73.992-.144-73.992l13.224.001c1.102 0 1.52-.767.942-1.7l-22.217-35.878-22.728 36.321c-.586.936-.17 1.676.943 1.651l15.465-.339s.75 97.485.732 101.874c-4.272 0-13.788-.045-20.224-5.307-6.436-5.263-7.105-8.643-8.932-14.428-1.828-5.785-2.512-12.533-2.512-17.572 6.495 0 17.021-10.184 17.021-19.98 0-9.798-11.035-22.247-21.027-22.247-9.993 0-23.23 8.282-23.23 20.986 0 12.705 10.022 21.24 15.59 21.24 0 3.907.606 13.36 2.102 19.03 1.496 5.673 2.405 5.92 3.447 8.371 2.277 5.357 2.599 9.327 13.277 15.643 10.678 6.315 20.318 6.101 24.488 6.101.25 2.888 0 10.361 0 13.922-7.875 0-17.2 7.9-17.2 19.29 0 11.387 8.075 19.894 22.882 20.454z" fill-rule="evenodd"/>
</svg>
