<svg width="256" height="256" xmlns="http://www.w3.org/2000/svg">
    <path d="M25 184c-.47 2.68-.227 4.354 1 6s4.563 2.464 8 2c3.437-.464 5.078-.958 6-4 .922-3.042 20.436-105.053 20.436-105.053.311-1.627 1.916-2.947 3.57-2.947H99.64c1.105 0 2.262.847 2.59 1.914l13.007 42.35c.973 3.168 4.445 5.736 7.754 5.736h64.644s28.03 54.976 29.423 58c1.392 3.024 2.537 3.984 4.834 4 2.296.016 6.895-3.215 8.25-4.63 1.355-1.414 1.842-3.08.624-6.075-1.219-2.996-28.947-59.024-30.642-62.111C198.43 116.096 196.266 114 192 114s-59.994.286-59.994.286c-2.213.011-4.485-1.708-5.076-3.835 0 0-10.546-38.069-11.84-41.724C113.795 65.07 111.369 64 106 64H56c-5.6 0-5.793.422-7.879 5.727C46.035 75.03 25.471 181.319 25 184z" stroke="#979797" fill-rule="evenodd"/>
</svg>
