<svg width="256" height="256" xmlns="http://www.w3.org/2000/svg">
    <path d="M208.433 63.148c0 11.961-.219 119.755-.219 131.209 0 11.454-11.84 14.856-16.027 10.347-4.187-4.508-52.355-60.404-52.355-60.404-.719-.834-1.293-.615-1.282.488 0 0 .37 37.702.37 49.528 0 11.827-12.464 15.24-16.516 10.433-4.051-4.806-56.586-65.858-56.586-65.858-.72-.837-1.316-.624-1.327.48 0 0-.617 62.39-.617 64.527 0 2.136-1.009 4.026-3.087 4.032-2.078.007-6.172.007-8.33.007-2.16 0-3.155-1.726-3.22-4.454-.065-2.728-.46-146.684-.46-149.86 0-3.177-.134-3.86 3.521-3.86h8.192c2.23 0 3.62 2.255 3.45 4.793-.17 2.538.578 62.396.578 62.396.013 1.092.614 1.323 1.341.5 0 0 50.693-57.393 56.836-65.488 6.142-8.096 16.073-1.062 16.073 10.137 0 11.2.085 50.228.085 50.228.002 1.103.594 1.333 1.322.504 0 0 46.313-52.757 52.713-60.673 6.4-7.915 15.545-.974 15.545 10.988zM193.584 78.97c.001-1.103-.59-1.322-1.315-.494l-42.179 48.115c-.727.83-.735 2.182-.015 3.024l42.11 49.234c.72.84 1.303.628 1.304-.474l.095-99.405zm-71.046-1.025l-42.24 49.323c-.722.843-.716 2.203.013 3.04l42.64 48.985c.729.838 1.314.623 1.31-.477l-.41-100.404c-.004-1.09-.592-1.309-1.313-.467z" fill-rule="evenodd"/>
</svg>
