<svg width="256" height="256" xmlns="http://www.w3.org/2000/svg">
    <path d="M109.56 157.868a33.419 33.419 0 0 1 5.59 18.557c0 18.543-15.032 33.575-33.575 33.575C63.032 210 48 194.968 48 176.425c0-18.543 15.032-33.575 33.575-33.575a33.42 33.42 0 0 1 16.753 4.472l19.743-19.843-17.873-17.963a33.419 33.419 0 0 1-18.623 5.634C63.032 115.15 48 100.118 48 81.575 48 63.032 63.032 48 81.575 48c18.543 0 33.575 15.032 33.575 33.575a33.41 33.41 0 0 1-4.43 16.68l18.309 18.21L198.144 47h9.974l-33.82 61.459c-1.062 1.93-3.714 3.39-5.918 3.249l-6.667-.426c-2.753-.176-6.585 1.261-8.545 3.21l-13.06 12.992 14.06 13.986c1.96 1.95 5.792 3.387 8.545 3.21l6.667-.425c2.204-.14 4.856 1.319 5.918 3.25l33.82 61.458h-9.974l-70.11-70.465-19.473 19.37zM81.602 195c9.72 0 17.601-7.89 17.601-17.623s-7.88-17.623-17.601-17.623c-9.72 0-17.601 7.89-17.601 17.623S71.88 195 81.601 195zm0-95c9.72 0 17.601-7.89 17.601-17.623s-7.88-17.623-17.601-17.623c-9.72 0-17.601 7.89-17.601 17.623S71.88 100 81.601 100z" fill-rule="evenodd"/>
</svg>
