<svg width="256" height="256" xmlns="http://www.w3.org/2000/svg">
    <path d="M25.856 160.231l-.105 15.5 21.52.091s10.258.899 17.47-1.033c7.21-1.932 5.846.283 11.266-6.664s2.59-5.662 5.685-15.063c3.095-9.402 5.482-18.859 5.482-18.859l5.383-19.944 6.906-17.103 4.976-5.127 11.477-.617 16.25.1 18.06-.211 6.094.464 5.18 7.82 4.468 14.117 4.062 14.727 4.04 14.208 4.367 14.726s2.14 7.77 6.398 11.62c4.257 3.851 13.406 6.293 13.406 6.293l20.313.3 13.651-.105.502-15.884-16.709.405-17.022-.72-2.563-.717-5.742-17.059-6.713-23.695-5.777-19.032s-1.753-7.91-6.973-13.517c-5.22-5.607-8.141-8.08-15.059-10.146-6.917-2.066-10.042-.902-21.245-.803-11.202.099-17.124.015-22.405.19-5.281.174-10.457.896-10.457.896l-9.33 3.96-8.1 11.07-5.023 12.188-5.23 18.891-3.999 14.727-4.511 13.608-3.282 9.445-17.84.793-18.87.16z" fill-rule="evenodd"/>
</svg>
