<svg width="256" height="256" xmlns="http://www.w3.org/2000/svg">
    <path d="M25 184c-.47 2.68-.227 4.354 1 6s4.563 2.464 8 2c3.437-.464 5.078-.958 6-4 .922-3.042 39.818-102.423 39.818-102.423 1.205-3.08 3.034-3.022 4.08.115l16.331 48.974c1.049 3.144 4.353 6.781 7.386 8.127 0 0 108.132 48.015 111.214 48.404 3.083.389 5.414.105 7.19-1.197 1.68-1.23 3.532-3.733 4.124-6 .591-2.267-1.12-5.898-3.343-7.28-2.223-1.38-109.625-46.556-109.625-46.556-2.026-.853-4.148-3.274-4.736-5.389 0 0-12.137-43.757-14.135-49.484-1.998-5.727-6.562-10.983-14.989-10.983-8.426 0-13.23 2.387-15.315 7.692-2.086 5.305-42.53 109.32-43 112z" stroke="#979797" fill-rule="evenodd"/>
</svg>
