<svg width="256" height="256" xmlns="http://www.w3.org/2000/svg">
    <path d="M80.033 60.858c0-14.183 8.718-16.43 13.894-10.454 5.176 5.977 47.925 60.873 52.46 68.201 4.535 7.329 5.434 13.082.086 20.28-5.349 7.198-45.27 61.462-52.015 67.2-6.745 5.74-14.543 3.358-14.543-10.567 0-13.926.118-120.476.118-134.66zm51.265 71.792c1.34-1.758 1.357-4.612.03-6.388L98.4 82.205c-1.323-1.77-2.396-1.405-2.396.792L96 175.003c0 2.207 1.088 2.568 2.424.814l32.874-43.167zm44.866-78.858c.17-2.538-1.22-4.792-3.45-4.792h-8.193c-3.655 0-3.52.682-3.52 3.859 0 3.176.394 147.132.46 149.86.064 2.729 1.06 4.454 3.219 4.454s6.252 0 8.33-.006c2.079-.007 3.088-1.897 3.088-4.033s-.104-146.803.066-149.342z" fill-rule="evenodd"/>
</svg>
