<svg width="256" height="256" xmlns="http://www.w3.org/2000/svg">
    <path d="M48.227 65.473c0-9.183 7.096-16.997 16.762-17.51 9.666-.513 116.887-.487 125.094-.487 8.207 0 17.917 9.212 17.917 17.71 0 8.499.98 117.936.49 126.609-.49 8.673-9.635 15.995-17.011 15.995-7.377 0-117.127-.327-126.341-.327-9.214 0-17.472-7.793-17.192-16.1.28-8.306.28-116.708.28-125.89zm15.951 4.684c-.153 3.953 0 112.665 0 116.19 0 3.524 3.115 5.959 7.236 6.156 4.12.198 112.165.288 114.852 0 2.686-.287 5.811-2.073 5.932-5.456.12-3.383-.609-113.865-.609-116.89 0-3.025-3.358-5.84-6.02-5.924-2.662-.085-110.503 0-114.155 0-3.652 0-7.083 1.972-7.236 5.924z" fill-rule="evenodd"/>
</svg>
