<svg width="256" height="256" xmlns="http://www.w3.org/2000/svg">
    <path d="M163.819 107.882c.006 2.204 1.314 5.22 2.922 6.738l6.463 6.098c1.608 1.518 4.309 1.626 6.022.25l9.525-7.65c1.718-1.38 3.113-4.283 3.116-6.496l.078-71.27c.002-2.208-1.303-2.78-2.915-1.277l-22.432 20.91c-1.612 1.502-2.914 4.516-2.908 6.71l.129 45.987zm-71.78 11.642c1.561-1.56 4.618-2.841 6.834-2.863l56.433-.554c2.213-.022 5.297 1.204 6.887 2.738l7.074 6.82c1.59 1.535 1.51 3.937-.175 5.362l-6.575 5.564c-1.687 1.427-4.85 2.589-7.047 2.595l-55.465.16c-2.205.006-5.367-1.141-7.062-2.564l-6.812-5.717c-1.695-1.423-1.805-3.837-.241-5.4l6.149-6.141zm72.327 28.892c.015-2.212 1.4-5.156 3.1-6.58l6.35-5.323c1.698-1.422 4.56-1.565 6.387-.322l8.302 5.646c1.83 1.244 3.326 4.042 3.342 6.258l.51 70.57c.016 2.21-1.32 2.83-2.992 1.374l-22.313-19.423c-1.668-1.452-3.009-4.412-2.994-6.635l.308-45.565zM89.19 56.053c1.618 1.5 2.93 4.501 2.93 6.714v44.353c0 2.209-1.275 5.253-2.848 6.8l-7.356 7.232c-1.572 1.546-4.225 1.666-5.933.26l-8.897-7.325c-1.704-1.403-3.086-4.335-3.086-6.53v-70.85c0-2.205 1.319-2.77 2.93-1.277l22.26 20.623z" fill-rule="evenodd"/>
</svg>
