<svg width="256" height="256" xmlns="http://www.w3.org/2000/svg">
    <g fill-rule="evenodd">
        <path d="M33.697 220.076l-1.353-2.697-1.822-3.49-.06-167.247 1.13-4.875 3.334-5.129 4.868-2.742 176.147.113 5.172 2.48 4.94 4.171 1.59 3.999-.184 168.706-2.285 5.073-3.301 3.74-5.383 1.487-173.347-.142-5.637-1.165-3.809-2.282zm5.027-7.494l1.269 2.21 1.879 1.472 174.69-.408 1.473-1.384 1.523-2.512-.162-166.463-1.589-2.205-1.59-1.23-174.801.157-2.05 1.219-1.235 2.285.593 166.859z"/>
        <path d="M54.563 86.647l50.023-.095 11.73 2.64 8.785 4.722 5.28 6.955 2.44 4.16 1.066 6.449.406 8.044-1.283 8.323-4.355 5.89-5.534 4.47-5.077 3.755-5.89 1.115-.515 1.524 26.001 38.956-26.918.089-21.057-36.675-12.919.453-.241 36.256-22.098-.049.156-96.982zm21.714 18.215l.397 25.225 23.404-.26s5.18-1.64 5.484-2c.305-.358 4.266-4.664 4.266-4.664l1.013-4.767-.974-6.355-3.947-5.125-4.87-1.999-24.773-.055zm68.863 19.452l7.362-6.918 8.48-4.102 11.376-.925 12.086 1.32 9.293 6.247 5.532 7.231 2.742 6.704s2.489 8.653 2.489 9.06c0 .406-.104 12.441-.104 12.441l-45.375.191.508 4.215 3.351 5.18 4.926 3.453 9.667.319 6.246-3.64 2.59-4.152 18.495 6.24-5.69 8.175-6.253 5.28-8.555 4.61-10.354.606-12.385-.414-10.15-5.126-7.326-7.228-4.432-10.108-1.742-10.123.062-10.343 3.047-10.036 4.113-8.157zm14.234 16.835l24.116.7.002-4.013-1.88-4.773-3.402-3.402-8.023-1.066-6.145 2.05-3.046 4.307-1.622 6.197zM66.64 207h-2.62c-1.569-2.478-2.543-4-2.922-4.565a8.93 8.93 0 0 0-1.198-1.456c-.419-.405-.813-.66-1.182-.768-.369-.107-.857-.161-1.466-.161h-2.406V207h-2.084v-15.748h6.971c.953 0 1.751.06 2.396.183a3.78 3.78 0 0 1 2.82 2.245 4.62 4.62 0 0 1 .392 1.88c0 1.188-.376 2.144-1.128 2.868-.752.723-1.848 1.181-3.287 1.375v.043c1.053.465 2.04 1.421 2.965 2.868L66.64 207zm-11.794-8.82h4.468c.903 0 1.617-.076 2.144-.23a2.295 2.295 0 0 0 1.262-.897 2.52 2.52 0 0 0 .472-1.493c0-.717-.261-1.325-.784-1.827-.523-.5-1.386-.752-2.589-.752h-4.973v5.2zM78.242 207h-2.03c-.186-.358-.319-.827-.398-1.407-1.296 1.117-2.696 1.676-4.2 1.676-1.203 0-2.152-.301-2.846-.903-.695-.601-1.042-1.396-1.042-2.385 0-.945.334-1.724 1.004-2.336.67-.612 1.832-1.019 3.486-1.22l1.805-.268c.673-.107 1.228-.24 1.665-.397 0-.58-.018-.99-.054-1.23a1.82 1.82 0 0 0-.317-.747c-.176-.258-.457-.465-.843-.623-.387-.157-.906-.236-1.558-.236-.83 0-1.488.154-1.971.462-.484.308-.815.88-.994 1.718l-1.89-.247c.207-1.167.74-2.044 1.6-2.631.86-.588 2.041-.881 3.545-.881 1.368 0 2.372.202 3.013.607.641.404 1.035.893 1.182 1.466.147.573.22 1.31.22 2.213v2.6c0 1.582.03 2.644.091 3.185a4.13 4.13 0 0 0 .532 1.584zm-2.556-5.017v-.698c-1.01.337-2.246.604-3.707.8-1.46.197-2.19.815-2.19 1.853 0 .523.196.955.59 1.295.394.34.96.51 1.697.51.953 0 1.792-.285 2.52-.854.726-.57 1.09-1.538 1.09-2.906zm14.244 1.075c-.251 1.453-.824 2.519-1.72 3.195a4.912 4.912 0 0 1-3.04 1.016c-1.653 0-2.932-.543-3.834-1.628-.902-1.085-1.354-2.523-1.354-4.313 0-1.482.26-2.67.78-3.56.518-.893 1.168-1.52 1.949-1.88.78-.362 1.6-.543 2.46-.543 1.174 0 2.179.304 3.013.913.834.609 1.348 1.504 1.542 2.685l-1.87.29c-.193-.766-.506-1.342-.94-1.73-.433-.386-.986-.58-1.66-.58-1.08 0-1.9.384-2.46 1.15-.558.767-.837 1.837-.837 3.212 0 1.404.274 2.487.822 3.25.548.762 1.337 1.144 2.368 1.144.831 0 1.485-.238 1.96-.715.477-.476.776-1.19.898-2.143l1.923.237zM101.037 207h-2.374l-3.792-5.833-1.364 1.3V207h-1.934v-15.748h1.934v8.97l4.576-4.62h2.514l-4.362 4.222 4.802 7.176zm19.701 0h-11.762v-15.748h11.397v1.87h-9.313v4.812h8.711v1.869h-8.711v5.328h9.678V207zm12.02 0h-2.384l-2.965-4.512-2.997 4.512h-2.352l4.178-5.94-3.845-5.457h2.395c1.561 2.356 2.413 3.67 2.557 3.942l2.793-3.942h2.31l-3.943 5.35 4.254 6.047zm6.07-.021c-.573.114-1.056.171-1.45.171-.845 0-1.461-.148-1.848-.445a1.813 1.813 0 0 1-.709-1.134c-.086-.458-.129-1.095-.129-1.912v-6.563h-1.407v-1.493h1.407v-2.836l1.934-1.171v4.007h1.934v1.493h-1.934v6.67c0 .574.06.98.177 1.22.118.24.417.36.897.36.28 0 .566-.029.86-.086l.268 1.719zm11.57-5.189h-8.54c.078 1.26.438 2.224 1.079 2.89.641.666 1.441.999 2.4.999.739 0 1.358-.195 1.86-.586.5-.39.884-.98 1.149-1.767l1.987.247c-.322 1.189-.913 2.102-1.772 2.74-.86.637-1.934.956-3.223.956-1.712 0-3.05-.525-4.012-1.574-.964-1.05-1.445-2.483-1.445-4.302 0-1.798.467-3.255 1.402-4.372.934-1.118 2.25-1.676 3.947-1.676.831 0 1.631.182 2.401.548.77.365 1.424.986 1.96 1.863.538.878.806 2.222.806 4.034zm-1.988-1.59c-.079-1.16-.438-1.996-1.08-2.508-.64-.512-1.34-.768-2.1-.768-.909 0-1.657.304-2.245.913-.587.609-.927 1.396-1.02 2.363h6.445zm13.632 6.8h-1.944v-6.929c0-1.167-.21-1.97-.629-2.406-.419-.437-1-.655-1.745-.655-.573 0-1.116.14-1.628.419a2.374 2.374 0 0 0-1.09 1.181c-.215.509-.322 1.229-.322 2.16V207h-1.934v-11.397h1.74v1.61h.043c.408-.622.911-1.09 1.51-1.401.597-.312 1.29-.467 2.078-.467.602 0 1.196.107 1.783.322.588.215 1.048.537 1.38.967.334.43.543.888.63 1.375.085.487.128 1.146.128 1.976V207zm9.281-8.207c-.086-.623-.338-1.09-.757-1.402-.419-.311-1-.467-1.746-.467-.737 0-1.334.125-1.788.376-.455.25-.682.616-.682 1.096 0 .45.18.773.542.966.362.194 1.076.43 2.143.71 1.203.307 2.104.58 2.702.816.598.236 1.063.567 1.396.993.333.426.5 1.02.5 1.778 0 1.017-.416 1.873-1.246 2.568-.831.694-1.941 1.042-3.33 1.042-1.447 0-2.577-.307-3.39-.919-.812-.612-1.312-1.53-1.498-2.755l1.923-.29c.1.795.395 1.389.886 1.783.49.394 1.176.59 2.057.59.845 0 1.493-.177 1.944-.531.452-.355.677-.786.677-1.294 0-.344-.104-.62-.311-.828a1.955 1.955 0 0 0-.78-.467c-.31-.104-1.01-.288-2.1-.553-1.618-.387-2.687-.856-3.206-1.407a2.783 2.783 0 0 1-.779-1.977c0-.952.38-1.737 1.14-2.352.758-.616 1.779-.924 3.06-.924 1.361 0 2.42.266 3.175.8.756.534 1.208 1.33 1.359 2.39l-1.89.258zm6.574 8.207h-1.933v-11.397h1.933V207zm0-13.557h-1.933v-2.191h1.933v2.191zm7.595 1.902c1.54 0 2.816.501 3.83 1.504 1.013 1.002 1.52 2.427 1.52 4.275 0 2.242-.548 3.826-1.644 4.753-1.095.928-2.33 1.392-3.706 1.392-1.44 0-2.689-.477-3.749-1.43-1.06-.952-1.59-2.463-1.59-4.532 0-2.006.512-3.5 1.536-4.485 1.025-.985 2.292-1.477 3.803-1.477zm0 10.334c1.103 0 1.94-.408 2.514-1.225.573-.816.86-1.89.86-3.223 0-1.425-.325-2.499-.973-3.222-.648-.724-1.448-1.085-2.4-1.085-.982 0-1.788.367-2.418 1.1-.63.735-.945 1.829-.945 3.283 0 1.446.32 2.537.961 3.27.641.735 1.442 1.102 2.401 1.102zM202.4 207h-1.944v-6.929c0-1.167-.21-1.97-.628-2.406-.42-.437-1.001-.655-1.746-.655a3.35 3.35 0 0 0-1.627.419 2.37 2.37 0 0 0-1.09 1.181c-.216.509-.323 1.229-.323 2.16V207h-1.934v-11.397h1.74v1.61h.044c.408-.622.91-1.09 1.509-1.401.598-.312 1.29-.467 2.078-.467.602 0 1.196.107 1.784.322.587.215 1.047.537 1.38.967a3.1 3.1 0 0 1 .628 1.375c.086.487.13 1.146.13 1.976V207z"/>
    </g>
</svg>
