<svg width="256" height="256" xmlns="http://www.w3.org/2000/svg">
    <path d="M26.893 131.912l4.46 4.69 2.446 1.474 5.38 6.5 5.79 9.75 5.078 11.62 1.93 5.485 7.14-16.037 7.304-23.997 6.195-22.475 7.541-25.745 6.6-18.934 16.86.197s2.362 8.456 5.281 15.743c2.92 7.287 3.8 9.827 6.805 15.421 3.005 5.595 2.535 7.704 6.853 10.01s8.505 3.917 13.7-.034c5.195-3.951 5.944-6.498 9.038-14.544 3.094-8.046 6.703-16.39 6.703-16.39l4.266-11.376 15.742.29 5.441 15.985 3.654 16.758 3.453 11.883 4.768 15.94 4.517 14.87 3.35 10.835 8.068 19.517 8.43-16.59 12.177-16.284 6.196-4.408v20.692l-5.068 8.06-6.562 14.624-4.41 13-1.17 3.638-16.463-.325s-3.706-7.796-7.227-16.116c-3.52-8.32-2.7-6.092-6.662-16.703-3.962-10.611-4.306-10.983-7.521-21.282-3.216-10.299-1.807-6.957-5.586-20.7-3.78-13.744-7.664-27.476-7.664-27.476s-4.545 8.716-7.894 14.32c-3.349 5.604-3.732 6.807-7.28 11.07-3.549 4.264-3.972 5.41-8.61 8.023-4.639 2.612-5.317 3.693-11.734 3.435s-5.726.902-12.608-4.415c-6.883-5.317-9.84-12.928-9.84-12.928l-9.947-19.675-6.46 18.273-4.717 16.656-4.047 15.298-6.152 19.5-6.043 16.71-7.825 16.01-17.727-.172-4.82-16.194-6.766-15.777-4.363-6.854v-20.846z" fill-rule="evenodd"/>
</svg>
