<svg width="256" height="256" xmlns="http://www.w3.org/2000/svg">
    <path d="M208.552 206.834h-25v-92.492l-43.987 87.835c-1.081 2.238-2.592 3.935-4.532 5.09-1.94 1.155-4.024 1.733-6.25 1.733-2.163 0-4.183-.578-6.06-1.733-1.876-1.155-3.355-2.852-4.436-5.09l-44.179-87.835v92.492H49.3V63.548c0-3.25.843-6.137 2.528-8.665 1.686-2.527 3.896-4.223 6.632-5.09a11.647 11.647 0 0 1 4.007-.379 12.01 12.01 0 0 1 3.865.975c1.24.541 2.37 1.3 3.387 2.274 1.018.975 1.877 2.148 2.576 3.52l56.488 111.445L185.27 56.183c1.463-2.744 3.483-4.693 6.06-5.848 2.576-1.156 5.263-1.336 8.062-.542 2.672.867 4.867 2.563 6.584 5.09 1.718 2.528 2.576 5.416 2.576 8.665v143.286z" fill-rule="evenodd"/>
</svg>
