<svg width="256" height="256" xmlns="http://www.w3.org/2000/svg">
    <path d="M32 147.996a3.917 3.917 0 0 1 3.991-3.934l24.305.376c2.204.034 3.98 1.852 3.967 4.07l-.239 39.483A3.973 3.973 0 0 0 67.996 192h8.008A4 4 0 0 0 80 187.998V52.002A4.005 4.005 0 0 1 84.01 48h39.98a4 4 0 0 1 4.01 4.003v103.994a4 4 0 0 0 3.996 4.003h8.008a4.002 4.002 0 0 0 3.996-4.01v-39.98a3.93 3.93 0 0 1 4.004-3.947l23.992.374A3.93 3.93 0 0 0 176 108.5V84a4.005 4.005 0 0 1 4.01-4h39.98a4.006 4.006 0 0 1 4.01 3.998v56.504a3.999 3.999 0 0 1-3.992 3.998h-7.516a4 4 0 0 1-3.992-4.01v-39.98a4.003 4.003 0 0 0-3.996-4.01h-8.008a4.072 4.072 0 0 0-4.06 4.005l-.372 23.49a4.08 4.08 0 0 1-4.068 4.005h-23.992a4.006 4.006 0 0 0-4.004 4.01v39.98a4.01 4.01 0 0 1-4.01 4.01h-39.98a4 4 0 0 1-4.01-4.003V68.003A4 4 0 0 0 108.004 64h-8.008A4 4 0 0 0 96 68.002v135.996A4.005 4.005 0 0 1 91.99 208H52.01a4.01 4.01 0 0 1-4.01-4.01v-39.98a4.003 4.003 0 0 0-3.996-4.01h-8.008A3.996 3.996 0 0 1 32 156.004v-8.008z" stroke="#979797" fill-rule="evenodd"/>
</svg>
