<svg width="256" height="256" xmlns="http://www.w3.org/2000/svg">
    <path d="M201.002 111c4.417 0 7.998 3.579 7.998 8.01v16.98c0 4.424-3.588 8.01-7.998 8.01H55.998C51.58 144 48 140.421 48 135.99v-16.98c0-4.424 3.588-8.01 7.998-8.01h145.004zm0 65c4.417 0 7.998 3.579 7.998 8.01v16.98c0 4.424-3.588 8.01-7.998 8.01H55.998C51.58 209 48 205.421 48 200.99v-16.98c0-4.424 3.588-8.01 7.998-8.01h145.004zm0-129c4.417 0 7.998 3.579 7.998 8.01v16.98c0 4.424-3.588 8.01-7.998 8.01H55.998C51.58 80 48 76.421 48 71.99V55.01c0-4.424 3.588-8.01 7.998-8.01h145.004z" fill-rule="evenodd"/>
</svg>
