<svg width="256" height="256" xmlns="http://www.w3.org/2000/svg">
    <g fill="#000" fill-rule="evenodd">
        <path d="M128 226c-13.27 0-25.936-2.584-37.994-7.752-12.059-5.168-22.49-12.154-31.295-20.959-8.805-8.805-15.791-19.236-20.959-31.295C32.584 153.936 30 141.271 30 128c0-13.27 2.584-25.936 7.752-37.994 5.168-12.059 12.154-22.49 20.959-31.295 8.805-8.805 19.236-15.791 31.295-20.959C102.064 32.584 114.729 30 128 30c13.27 0 25.936 2.584 37.994 7.752 12.059 5.168 22.49 12.154 31.295 20.959 8.805 8.805 15.791 19.236 20.959 31.295C223.416 102.064 226 114.729 226 128c0 13.27-2.584 25.936-7.752 37.994-5.168 12.059-12.154 22.49-20.959 31.295-8.805 8.805-19.236 15.791-31.295 20.959C153.936 223.416 141.271 226 128 226zm-.247-7.742c50.034 0 90.594-40.634 90.594-90.758 0-50.124-40.56-90.758-90.594-90.758-50.034 0-90.594 40.634-90.594 90.758 0 50.124 40.56 90.758 90.594 90.758z" fill-rule="nonzero"/>
        <path d="M202.302 131.704c-.247 4.699-.74 9.645-1.975 14.343-1.234 4.699-2.715 9.398-4.69 13.602-6.171 2.225-11.602 5.935-16.045 11.375-4.444 5.44-6.912 11.376-7.9 17.806-7.652 5.688-16.538 9.892-25.919 12.117-5.43-3.462-11.849-5.44-18.76-5.44-6.912 0-13.33 1.73-18.761 4.946-9.38-2.72-18.02-7.172-25.673-12.86-.987-6.182-3.455-12.612-7.652-18.052-4.196-5.688-9.627-9.398-15.551-11.87-3.703-8.656-5.678-18.3-5.925-27.945 4.69-4.699 8.146-10.387 9.627-17.064 1.481-6.677.988-13.354-.74-19.536 4.69-8.656 10.861-16.322 18.267-22.257 6.418.742 13.083-.247 19.254-3.215 6.171-2.968 11.355-7.172 14.811-12.612 9.134-1.731 19.008-1.484 28.635.494 3.456 5.194 8.393 9.645 14.564 12.86 5.924 2.968 12.59 4.204 19.007 3.71 7.406 6.43 13.33 14.095 17.527 22.75-1.975 6.183-2.222 12.86-.988 19.537 1.235 6.677 4.444 12.612 8.887 17.311zm-25.278 7.941c6.625-27.292-10.17-54.798-37.51-61.435-27.343-6.637-54.878 10.108-61.503 37.4-6.625 27.292 10.169 54.798 37.51 61.435 27.342 6.637 54.878-10.108 61.503-37.4z" fill-rule="nonzero"/>
        <ellipse cx="128.5" cy="96" rx="14.5" ry="14"/>
    </g>
</svg>
