<svg width="256" height="256" xmlns="http://www.w3.org/2000/svg">
    <g fill-rule="evenodd">
        <path d="M25 185.377V70.39c0-3.527 2.878-6.39 6.428-6.39h192.95c3.547 0 6.427 2.861 6.427 6.39v114.987c0 3.527-2.878 6.39-6.428 6.39H31.427c-3.547 0-6.427-2.86-6.427-6.39zm14.667-15.382c0 3.316 2.84 6.005 6.354 6.005h163.625c3.51 0 6.354-2.693 6.354-6.005v-83.99c0-3.316-2.841-6.005-6.354-6.005H46.021c-3.51 0-6.354 2.693-6.354 6.005v83.99z"/>
        <path d="M120.236 163.017c0 1.766 1.789 3.197 3.996 3.197h8.008c2.207 0 3.996-1.43 3.996-3.197V92.75c0-1.765-1.79-3.197-3.996-3.197h-8.008c-2.207 0-3.996 1.43-3.996 3.197v70.267zm-32.726 0c0 1.766 1.789 3.197 3.996 3.197h8.008c2.207 0 3.996-1.43 3.996-3.197V92.75c0-1.765-1.789-3.197-3.996-3.197h-8.008c-2.207 0-3.996 1.43-3.996 3.197v70.267zm-31.726 0c0 1.766 1.79 3.197 3.997 3.197h8.007c2.207 0 3.996-1.43 3.996-3.197V92.75c0-1.765-1.788-3.197-3.996-3.197h-8.007c-2.207 0-3.997 1.43-3.997 3.197v70.267z"/>
    </g>
</svg>
