<svg width="256" height="256" xmlns="http://www.w3.org/2000/svg">
    <path d="M82.757 128l-8.662-15.546C59.565 86.38 59.273 59.84 84.248 46.56l12.318-6.533c27.248-13.823 47.58 1.422 62.114 27.505l17.307 31.062-14.612 7.413c-.95.482-6.824-12.246-15.349-27.546l-1.959-3.516c-10.23-18.36-18.63-29.368-38.728-19.173l-11.12 5.508c-25.096 12.71-9.972 35.728-5.5 43.756l1.96 3.515L101.515 128h82.478c4.416 0 8.007 3.586 8.007 8.01v84.98c0 4.43-3.585 8.01-8.007 8.01H72.007c-4.416 0-8.007-3.586-8.007-8.01v-84.98c0-4.43 3.585-8.01 8.007-8.01h10.75zM176 148.316c0-2.384-1.547-4.316-3.46-4.316H83.46c-1.911 0-3.46 1.936-3.46 4.316v60.368c0 2.384 1.547 4.316 3.46 4.316h89.08c1.911 0 3.46-1.936 3.46-4.316v-60.368z" fill="#000" fill-rule="evenodd"/>
</svg>
