<svg width="256" height="256" xmlns="http://www.w3.org/2000/svg">
    <path d="M90.643 97.44s-4.586 0-5.309-1.005c-.722-1.005-1.558-2.991-1.5-5.913.058-2.921.557-3.22 1.733-5.823 1.177-2.604 1.592-3.593 3.717-6.239 2.124-2.646 2.953-3.544 6.23-6.153 3.28-2.608 3.441-3.037 7.174-4.512 3.734-1.475 5.6-2.2 11.255-2.768 5.655-.566 4.472-.401 8.768.761s5.042 1.18 9.55 4.196c4.508 3.015 8.397 7.81 8.397 7.81l4.82-9.237 7.266-9.53 11.205-11.582 4.332-.101 1.392 4.69-5.677 5.34-8.826 11.27-6.59 12.584s5.965-.458 11.805.587 5.267.322 9.828 3.284c4.56 2.962 6.525 3.368 10.667 10.028 4.141 6.66 4.082 7.188 4.927 15.051.845 7.863.594 8.612-1.781 14.235-2.376 5.623-7.35 7.375-7.35 7.375l-6.042-3.86s-.155 3.837-1.171 7.152c-1.017 3.314-2.294 7.256-5.262 13.832-2.968 6.576-3.867 8.752-8.447 16.545-4.58 7.794-4.533 7.476-9.561 14.097-5.028 6.622-5.52 7.248-11.461 13.59-5.942 6.341-5.408 7.14-11.71 11.142-6.303 4.001-15 5.816-15 5.816s-7.236-.109-13.338-3.998c-6.102-3.888-8.627-10.001-8.627-10.001s-2.973-7.293-4.894-15.16c-1.92-7.865-1.733-7.071-2.316-14.37-.584-7.298-.45-8.579-.2-17.11.251-8.532.012-8.558 1.192-16.743 1.18-8.185 1.214-9.874 3.917-18.698 2.702-8.825 6.887-16.582 6.887-16.582zm6.757-1.13s-4.981 6.523-8.491 16.386c-3.51 9.862-4.865 21.143-4.865 21.143s-1.057 7.613-1.178 16.826c-.122 9.214-.433 9.227.714 18.455 1.147 9.228 2.148 12.589 3.83 18.112 1.683 5.523 4.79 10.185 4.79 10.185s3.491 5.343 8.21 7.325c4.72 1.981 6.69 1.61 10.285.44 3.594-1.17 10.828-5.365 16.947-10.386 6.12-5.02 11.044-12.58 11.044-12.58s7.887-10.361 12.657-18.117c4.77-7.756 5.593-9.93 8.637-16.503 3.043-6.573 4.245-8.834 5.366-13.738 1.12-4.904 1.12-10.98 1.12-10.98l-8.993-10.091-8.248 9.205s-6.31 4.725-11.26 5.854c-4.95 1.129-5.917.617-10.26-.946s-5.084-1.915-8.154-5.68c-3.071-3.765-4.529-9.87-4.529-9.87s-.717-10.799-.777-13.16c-.06-2.36.322-4.717.322-4.717L97.4 96.31z" stroke="#979797" fill-rule="evenodd"/>
</svg>
