<svg width="256" height="256" xmlns="http://www.w3.org/2000/svg">
    <path d="M203.037 63c-8.835 0-21.563 4.505-28.433 10.063l-47.528 38.445c-3.5 2.83-9.024 5.241-14.289 6.492H29.38a4.01 4.01 0 0 0-3.99 3.705v11.643a4.01 4.01 0 0 0 3.99 3.705h83.408c5.265 1.251 10.79 3.661 14.29 6.492l47.527 38.445c6.87 5.558 19.598 10.063 28.433 10.063h23.51a4 4 0 0 0 3.994-4.008v-8.984a4.003 4.003 0 0 0-4.008-4.008H209.04c-6.617 0-16.202-3.341-21.389-7.463l-43.906-34.897c-1.846-1.713-3.845-3.666-5.682-5.168 1.972-1.599 3.762-3.375 5.682-5.166l43.906-34.896C192.837 83.34 202.422 80 209.04 80h17.493a4.003 4.003 0 0 0 4.008-4.008v-8.984A4 4 0 0 0 226.547 63z"/>
</svg>
