<svg width="256" height="256" xmlns="http://www.w3.org/2000/svg">
    <path d="M52.893 63c8.835 0 21.563 4.505 28.433 10.063l47.527 38.445c3.5 2.83 9.024 5.241 14.29 6.492h83.408a4.01 4.01 0 0 1 3.99 3.705v11.643a4.01 4.01 0 0 1-3.99 3.705h-83.408c-5.266 1.251-10.79 3.661-14.29 6.492L81.326 181.99c-6.87 5.558-19.598 10.063-28.433 10.063h-23.51a4 4 0 0 1-3.994-4.008v-8.984a4.003 4.003 0 0 1 4.007-4.008h17.495c6.617 0 16.201-3.341 21.388-7.463l43.906-34.897c1.846-1.713 3.845-3.666 5.682-5.168-1.97-1.599-3.762-3.375-5.682-5.166L68.28 87.463C63.092 83.34 53.508 80 46.891 80H29.396a4.003 4.003 0 0 1-4.007-4.008v-8.984A4 4 0 0 1 29.383 63z"/>
</svg>
