<svg width="256" height="256" xmlns="http://www.w3.org/2000/svg">
    <path d="M46.677 64.652c0-9.362 7.132-17.387 16.447-17.394 9.315-.007 24.677.007 34.55.007 9.875 0 17.138 7.594 17.138 16.998 0 9.403-.083 119.094-.083 127.82 0 8.726-7.58 16.895-16.554 16.837-8.975-.058-25.349.115-34.963.058-9.614-.058-16.646-7.74-16.646-17.254 0-9.515.11-117.71.11-127.072zm14.759.818s-.09 118.144-.09 123.691c0 5.547 3.124 5.315 6.481 5.832 3.358.518 21.454.47 24.402.47 2.947 0 7.085-1.658 7.167-6.14.08-4.483-.082-119.507-.082-123.249 0-3.742-4.299-4.264-7.085-4.66-2.787-.395-25.796 0-25.796 0l-4.997 4.056zm76.664-.793c.027-9.804 7.518-17.541 17.125-17.689 9.606-.147 25.283.148 35.004.148 9.72 0 17.397 8.52 17.397 17.77s-.178 117.809-.178 127c0 9.192-7.664 17.12-16.323 17.072-8.66-.05-26.354 0-34.991.048-8.638.05-17.98-8.582-18.007-17.783-.027-9.201-.055-116.763-.027-126.566zm16.917.554s-.089 118.145-.089 123.692c0 5.547 3.123 5.314 6.48 5.832 3.359.518 21.455.47 24.402.47 2.948 0 7.086-1.659 7.167-6.141.081-4.482-.08-119.506-.08-123.248 0-3.742-4.3-4.265-7.087-4.66-2.786-.396-25.796 0-25.796 0l-4.997 4.055z" fill-rule="evenodd"/>
</svg>
