<svg width="256" height="256" xmlns="http://www.w3.org/2000/svg">
    <g fill="none" fill-rule="evenodd">
        <path d="M221.682 63.244a5.969 5.969 0 0 1 5.998 5.978v102.265a6.004 6.004 0 0 1-6.01 6.003h-14.388v8.16a6.004 6.004 0 0 1-5.999 6.008h-74.032s-6.482-15.38-23.783-15.38c-17.301 0-23.62 15.38-23.62 15.38H54.377c-3.31 0-5.993-2.692-5.993-6.007v-10.633l-15.326-.087c-3.311-.019-6.002-2.72-6.01-6.034l-.226-98.86a6.013 6.013 0 0 1 5.984-6.024l188.877-.77z" fill="#000"/>
        <path d="M44.002 80A2.002 2.002 0 0 0 42 81.997V160h35.76s.903-3.19 4.443-5.533c3.54-2.343 7.667-2.48 7.667-2.48L90 82.002a1.996 1.996 0 0 0-1.998-2.001h-44zm62 0A2.002 2.002 0 0 0 104 81.994v69.087s9.24.433 15.035 2.447c5.795 2.015 10.622 6.472 10.622 6.472h20.189a2.01 2.01 0 0 0 2.013-1.997L152 81.997A1.994 1.994 0 0 0 150.002 80h-44zm62 0A2.002 2.002 0 0 0 166 81.997V160h45.86a2.004 2.004 0 0 0 1.999-1.997L214 81.997A1.994 1.994 0 0 0 212.002 80h-44z" fill="#FFF"/>
    </g>
</svg>
