<svg width="256" height="256" xmlns="http://www.w3.org/2000/svg">
    <path d="M138.033 60.858c0-14.183 8.718-16.43 13.894-10.454 5.176 5.977 47.925 60.873 52.46 68.201 4.535 7.329 5.434 13.082.086 20.28-5.349 7.198-45.27 61.462-52.015 67.2-6.745 5.74-14.543 3.358-14.543-10.567 0-13.926.118-120.476.118-134.66zm51.265 71.792c1.34-1.758 1.357-4.612.03-6.388L156.4 82.205c-1.323-1.77-2.396-1.405-2.396.792L154 175.003c0 2.207 1.088 2.568 2.424.814l32.874-43.167zM47.033 60.858c0-14.183 8.718-16.43 13.894-10.454 5.176 5.977 47.925 60.873 52.46 68.201 4.535 7.329 5.434 13.082.086 20.28-5.349 7.198-45.27 61.462-52.015 67.2-6.745 5.74-14.543 3.358-14.543-10.567 0-13.926.118-120.476.118-134.66zm51.265 71.792c1.34-1.758 1.357-4.612.03-6.388L65.4 82.205c-1.323-1.77-2.396-1.405-2.396.792L63 175.003c0 2.207 1.088 2.568 2.424.814l32.874-43.167z" fill-rule="evenodd"/>
</svg>
