<svg width="256" height="256" xmlns="http://www.w3.org/2000/svg">
    <g fill-rule="evenodd">
        <path d="M32.063 44.286l2.843-4.92 4.57-3.282 4.05-1.846 175.136.464 4.774 2.64 5.078 4.366.753 175.396-3.18 3.453-6.357 2.945-177.641.744-6.153-2.974-4.41-5.332.537-171.654zm9.45 142.864l178.043-.12.505-142.383-177.91-.544-.638 143.047zm37.308 25.472l23.651.21.11-3.368-19.709-.18.196-3.668 19.354.08.157-2.539-19.377-.16s-.047-4.044.004-4.53c.051-.486 19.394.486 19.394.486l-.05-2.54-23.532.094-.198 16.115zm111-1l23.651.21.11-3.368-19.709-.18.196-3.668 19.354.08.157-2.539-19.377-.16s-.047-4.044.004-4.53c.051-.486 19.394.486 19.394.486l-.05-2.54-23.532.094-.198 16.115zm-79.678-15.033l-.123 15.666 31.106.145.022-15.746-5.854-.08.169 11.848-7.801.145-.158-11.88-5.3-.181.116 12.21-7.603-.235-.213-11.94-4.36.048zm38.623-.09l-.372 16.185 4.356-.069s-.15-15.84-.277-16.093c-.127-.254-3.707-.022-3.707-.022zm-100.627.146l-.137 16.053 4.494-.104-.009-6.305 9.838.127 3.846 5.393 6.25.048-4.991-5.361 4.25-2.934-.199-7.529-23.342.612zm112 0l-.137 16.053 4.494-.104-.009-6.305 9.838.127 3.846 5.393 6.25.048-4.991-5.361 4.25-2.934-.199-7.529-23.342.612z"/>
        <path d="M52.736 146.965l22.141-.315 14.828-2.873 14.016-5.64 5.784-3.383 6.845 4.542 8.328 4.062-11.399 6.907-11.072 5.586-9.74 3.453-11.501 1.717-28.207.52zm-.381-24.11l12.475.095 7.313-1.742 7.312-3.179 9.19 4.548 9.446 4.57-11.396 6.397-11.894 2.742-9.946 1.421-13.021.2z"/>
        <path d="M52.59 107.09l14.524.808 13.61 4.672 13.609 6.196 11.88 5.672 12.187 8.329 11.68 7.718 10.764 7.1 14.263 6.317 14.422 5.993 7.617 1.32 31.999-.007.04-15.175-25.697.81-15.682-4.613-16.706-7.278-13.117-9.222-14.026-9.326-14.377-7.84-13.726-7.586-14.735-6.662-11.606-2.67-16.705.187z"/>
        <path d="M52.826 83.443l21.509.051 11.781 2.336 12.492 5.18 11.477 5.89 14.625 8.735 11.781 8.328 15.336 9.445 13.508 6.805 13.914 5.484 10.36 1.929 20.76.096-.009-15.067-17.731.711-16.501-5.638-15.785-9.023-17.83-10.253-16.393-10.765-15.373-8.921-14.518-6.713-9.729-2.666-4.563-.927-29.015.639z"/>
        <path d="M210.412 106.312l.233-16.148-18.243.192-8.508 1.625-11.176 3.352-8.715 4.266-3.281 1.828 9.128 4.552 9.14 4.977 10.054-2.872 7.719-1.435zm-1.159-23.402l.482-15.852-19.888.097-14.246.095-13.124 3.555-13.837 6.398-10.66 7.814.078 2.008 6.703 3.961 7.312 5.078 9.75-5.536 11.07-3.794 14.016-3.084zM53.36 200.003l-.102 3.555 11.943.092.508-3.691zm112 0l-.102 3.555 11.943.092.508-3.691z"/>
    </g>
</svg>
