<svg width="256" height="256" xmlns="http://www.w3.org/2000/svg">
    <path d="M175.967 60.858c0 14.184.118 120.734.118 134.66 0 13.925-7.798 16.307-14.543 10.568-6.745-5.74-46.666-60.003-52.015-67.201-5.348-7.198-4.449-12.951.086-20.28 4.535-7.328 47.284-62.224 52.46-68.2 5.176-5.977 13.894-3.73 13.894 10.453zm-51.265 71.792l32.874 43.167c1.336 1.754 2.424 1.393 2.424-.814l-.005-92.006c0-2.197-1.073-2.562-2.396-.792l-32.926 44.057c-1.328 1.776-1.31 4.63.029 6.388zM79.836 53.792c-.17-2.538 1.22-4.792 3.45-4.792h8.193c3.655 0 3.52.682 3.52 3.859 0 3.176-.394 147.132-.46 149.86-.064 2.729-1.06 4.454-3.219 4.454s-6.252 0-8.33-.006c-2.079-.007-3.088-1.897-3.088-4.033s.104-146.803-.066-149.342z" fill-rule="evenodd"/>
</svg>
