<svg width="256" height="256" xmlns="http://www.w3.org/2000/svg">
    <path d="M208.714 161.607c0 5.765-.73 10.95-2.19 15.555-1.46 4.604-3.388 8.666-5.784 12.185s-5.203 6.513-8.423 8.984c-3.219 2.47-6.55 4.492-9.995 6.065-3.444 1.572-6.944 2.732-10.5 3.481-3.557.749-6.907 1.123-10.051 1.123H49.129v-29.2H161.77c5.615 0 9.976-1.646 13.083-4.94 3.107-3.295 4.66-7.712 4.66-13.253 0-2.695-.411-5.166-1.235-7.412-.823-2.246-2.002-4.192-3.537-5.84-1.535-1.647-3.407-2.92-5.616-3.818-2.208-.898-4.66-1.348-7.355-1.348H94.612c-4.717 0-9.808-.842-15.273-2.526-5.466-1.685-10.538-4.399-15.217-8.142-4.68-3.744-8.573-8.648-11.68-14.712-3.107-6.065-4.66-13.477-4.66-22.237 0-8.76 1.553-16.153 4.66-22.18 3.107-6.027 7-10.93 11.68-14.712 4.679-3.78 9.751-6.513 15.217-8.198 5.465-1.685 10.556-2.527 15.273-2.527h99.39v29.2h-99.39c-5.54 0-9.864 1.684-12.97 5.053-3.108 3.37-4.662 7.824-4.662 13.364 0 5.616 1.554 10.052 4.661 13.308 3.107 3.257 7.43 4.886 12.971 4.886h67.383c3.145.074 6.476.505 9.995 1.291 3.52.786 7.02 2.003 10.5 3.65 3.482 1.647 6.795 3.725 9.94 6.233 3.144 2.508 5.933 5.522 8.366 9.04 2.434 3.52 4.362 7.562 5.784 12.13 1.423 4.566 2.134 9.732 2.134 15.497z" fill-rule="evenodd"/>
</svg>
