<svg width="256" height="256" xmlns="http://www.w3.org/2000/svg">
    <path d="M117.027 60.858c0 14.184.118 120.734.118 134.66 0 13.925-7.798 16.307-14.543 10.568-6.745-5.74-46.666-60.003-52.014-67.201-5.349-7.198-4.45-12.951.086-20.28 4.535-7.328 47.284-62.224 52.46-68.2 5.175-5.977 13.893-3.73 13.893 10.453zM65.424 132.65l32.874 43.167c1.336 1.754 2.425 1.393 2.424-.814l-.005-92.006c0-2.197-1.072-2.562-2.395-.792l-32.927 44.057c-1.327 1.776-1.31 4.63.03 6.388zm142.603-71.792c0 14.184.118 120.734.118 134.66 0 13.925-7.798 16.307-14.543 10.568-6.745-5.74-46.666-60.003-52.014-67.201-5.349-7.198-4.45-12.951.086-20.28 4.535-7.328 47.284-62.224 52.46-68.2 5.175-5.977 13.893-3.73 13.893 10.453zm-51.603 71.792l32.874 43.167c1.336 1.754 2.425 1.393 2.424-.814l-.005-92.006c0-2.197-1.072-2.562-2.395-.792l-32.927 44.057c-1.327 1.776-1.31 4.63.03 6.388z" fill-rule="evenodd"/>
</svg>
