<svg width="256" height="256" xmlns="http://www.w3.org/2000/svg">
    <path d="M136.107 91c-1.793 0-3.247 1.46-3.247 3.224v7.538a2.415 2.415 0 0 0 2.426 2.417h71.288a2.42 2.42 0 0 0 2.426-2.417v-8.345A2.415 2.415 0 0 0 206.574 91h-70.467zm-.821 19.404a2.42 2.42 0 0 0-2.426 2.417v8.345a2.415 2.415 0 0 0 2.426 2.417h71.288a2.42 2.42 0 0 0 2.426-2.417v-8.345a2.415 2.415 0 0 0-2.426-2.417h-71.288zm0 21.022a2.42 2.42 0 0 0-2.426 2.417v8.344a2.415 2.415 0 0 0 2.426 2.417h71.288a2.42 2.42 0 0 0 2.426-2.417v-8.344a2.415 2.415 0 0 0-2.426-2.417h-71.288zm0 21.021a2.42 2.42 0 0 0-2.426 2.417v8.344a2.415 2.415 0 0 0 2.426 2.418h71.288a2.42 2.42 0 0 0 2.426-2.418v-8.344a2.415 2.415 0 0 0-2.426-2.417h-71.288zm-21.866 12.132a2.42 2.42 0 0 0 2.422 2.421h8.36a2.415 2.415 0 0 0 2.421-2.421V93.42a2.42 2.42 0 0 0-2.422-2.42h-8.36a2.415 2.415 0 0 0-2.421 2.421v71.158zm-43.74 0A2.42 2.42 0 0 0 72.102 167h8.36a2.415 2.415 0 0 0 2.421-2.421V93.42A2.42 2.42 0 0 0 80.461 91h-8.36a2.415 2.415 0 0 0-2.421 2.421v71.158zm-9.477 0A2.42 2.42 0 0 1 57.781 167h-8.36A2.415 2.415 0 0 1 47 164.579V93.42A2.42 2.42 0 0 1 49.422 91h8.36a2.415 2.415 0 0 1 2.421 2.421v71.158zm30.537 0A2.42 2.42 0 0 0 93.162 167h8.36a2.415 2.415 0 0 0 2.421-2.421V93.42a2.42 2.42 0 0 0-2.422-2.42h-8.36a2.415 2.415 0 0 0-2.421 2.421v71.158z" fill-rule="evenodd"/>
</svg>
