<svg width="256" height="256" xmlns="http://www.w3.org/2000/svg">
    <g fill-rule="evenodd">
        <path d="M120.46 158.29c-30.166 8.65-61.631-8.792-70.281-38.957-8.65-30.165 8.792-61.63 38.957-70.28 30.165-8.65 61.63 8.792 70.28 38.957 4.417 15.403-1.937 38.002-9.347 50.872-.614 1.067 59.212 53.064 59.212 53.064l-17.427 17.63-53.514-56.72s-10.233 3.241-17.88 5.434zM104 144c22.091 0 40-17.909 40-40s-17.909-40-40-40-40 17.909-40 40 17.909 40 40 40z"/>
        <path d="M80 96.084v15.992h48V96.084z"/>
    </g>
</svg>
