<svg width="256" height="256" xmlns="http://www.w3.org/2000/svg">
    <path d="M36 150.726c0 .703.982 1.274 2.201 1.274h7.598c1.216 0 2.201-.565 2.201-1.274v-37.452c0-.703-.982-1.274-2.201-1.274h-7.598c-1.216 0-2.201.565-2.201 1.274m20 55.273c0 1.355.982 2.453 2.201 2.453h7.598c1.216 0 2.201-1.088 2.201-2.453V96.453C68 95.098 67.018 94 65.799 94h-7.598C56.985 94 56 95.088 56 96.453m19 56.273c0 .703.982 1.274 2.201 1.274h7.598c1.216 0 2.201-.565 2.201-1.274v-37.452c0-.703-.982-1.274-2.201-1.274h-7.598c-1.216 0-2.201.565-2.201 1.274m19 30.77c0 .528.982.956 2.201.956h7.598c1.216 0 2.201-.424 2.201-.956v-28.088c0-.528-.982-.956-2.201-.956h-7.598c-1.216 0-2.201.424-2.201.956m20 54.304c0 1.513.982 2.74 2.201 2.74h7.598c1.216 0 2.201-1.216 2.201-2.74V91.74c0-1.513-.982-2.74-2.201-2.74h-7.598c-1.216 0-2.201 1.216-2.201 2.74m19 106.8c0 2.463.982 4.46 2.201 4.46h7.598c1.216 0 2.201-1.98 2.201-4.46V67.46c0-2.463-.982-4.46-2.201-4.46h-7.598c-1.216 0-2.201 1.98-2.201 4.46m19 116.036c0 1.935.982 3.504 2.201 3.504h7.598c1.216 0 2.201-1.555 2.201-3.504V80.504c0-1.935-.982-3.504-2.201-3.504h-7.598c-1.216 0-2.201 1.555-2.201 3.504m19 89.947c0 1.408.982 2.549 2.201 2.549h7.598c1.216 0 2.201-1.13 2.201-2.549V95.55c0-1.408-.982-2.549-2.201-2.549h-7.598c-1.216 0-2.201 1.13-2.201 2.549m19 62.698c0 .967.982 1.752 2.201 1.752h7.598c1.216 0 2.201-.777 2.201-1.752v-51.496c0-.967-.982-1.752-2.201-1.752h-7.598c-1.216 0-2.201.777-2.201 1.752m19 73.062c0 1.76.982 3.186 2.201 3.186h7.598c1.216 0 2.201-1.414 2.201-3.186V86.186c0-1.76-.982-3.186-2.201-3.186h-7.598c-1.216 0-2.201 1.414-2.201 3.186" fill-rule="evenodd"/>
</svg>
