<svg width="256" height="256" xmlns="http://www.w3.org/2000/svg">
    <path d="M48.567 63.148c0-11.962 9.145-18.903 15.545-10.988 6.4 7.916 52.713 60.673 52.713 60.673.728.83 1.32.599 1.322-.504 0 0 .085-39.029.085-50.228 0-11.2 9.93-18.233 16.073-10.137 6.143 8.095 56.836 65.487 56.836 65.487.727.824 1.328.593 1.341-.499 0 0 .747-59.858.577-62.396-.17-2.538 1.22-4.792 3.45-4.792h8.193c3.655 0 3.52.682 3.52 3.858 0 3.177-.394 147.133-.459 149.861-.065 2.728-1.06 4.454-3.22 4.454-2.158 0-6.252 0-8.33-.007-2.078-.006-3.087-1.896-3.087-4.032s-.617-64.526-.617-64.526c-.01-1.105-.607-1.318-1.327-.48 0 0-52.535 61.05-56.586 65.857-4.052 4.807-16.516 1.394-16.516-10.433 0-11.826.37-49.528.37-49.528.01-1.103-.563-1.322-1.282-.488 0 0-48.168 55.896-52.355 60.404-4.187 4.509-16.027 1.107-16.027-10.347 0-11.454-.219-119.248-.219-131.21zM63.416 78.97l.095 99.405c.001 1.102.585 1.314 1.304.474l42.11-49.234c.72-.842.712-2.195-.015-3.024L64.73 78.477c-.725-.828-1.315-.609-1.314.494zm71.046-1.025c-.721-.842-1.31-.622-1.314.467l-.409 100.404c-.004 1.1.581 1.315 1.31.477l42.64-48.986c.729-.836.735-2.196.013-3.04l-42.24-49.322z" fill-rule="evenodd"/>
</svg>
