<svg width="256" height="256" xmlns="http://www.w3.org/2000/svg">
    <path d="M25.365 99.2a4.004 4.004 0 0 1 4.01-3.995h50.981c2.214 0 5.28-1.248 6.86-2.802l17.551-17.253c18.907-18.584 42.923-13.987 53.634 10.248l34.746 78.62c2.68 6.065 10.217 10.982 16.845 10.982h16.718a3.996 3.996 0 0 1 3.994 3.995v10.01a4 4 0 0 1-4.007 3.995h-24.7c-8.835 0-19.03-6.489-22.775-14.497l-40.444-86.506c-3.744-8.007-12.11-9.714-18.687-3.815l-20.267 18.179c-3.291 2.951-9.545 5.344-13.95 5.344H29.368a4.005 4.005 0 0 1-4.004-3.994v-8.512z" fill-rule="evenodd"/>
</svg>
