<svg width="256" height="256" xmlns="http://www.w3.org/2000/svg">
    <path d="M26.572 175.798l-.423 16.215s6.07-.61 16.657-3.59c10.586-2.978 10.222-.383 20.515-9.87 10.293-9.486 9.362-6.84 15.235-20.838 5.873-13.998 5.28-12.871 7.91-25.156 2.63-12.286 2.907-16.198 7.088-26.018 4.18-9.82 4.448-10.736 10.46-16.25 6.014-5.514 9.596-6.742 16.67-8.629 7.074-1.887 8.357-2.026 16.579.3 8.221 2.327 6.33.988 13.914 8.329 7.583 7.34 6.95 6.504 11.476 16.25 4.527 9.746 3.555 10.641 6.431 20.151s3.3 11.71 5.393 18.947c2.091 7.236 1.493 7.698 4.265 14.464 2.772 6.765 2.963 8.233 7.104 13.287 4.14 5.053 3.365 5.15 11.273 9.14 7.908 3.99 11.118 5.02 18.61 6.939 7.493 1.92 15.641 1.836 15.641 1.836l.339-16.327s-11.697.108-20.815-3.749c-9.12-3.856-8.863-4.217-15.464-14.17-6.602-9.953-2.691-5.123-7.283-19.616-4.59-14.492-4.386-16.372-8.116-27.993-3.73-11.62-3.692-14.478-10.296-23.138-6.603-8.66-9.682-10.42-18.784-15.001-9.102-4.582-13.384-5.268-22.453-5.756-9.069-.488-8.27-.513-18.477 3.552-10.207 4.066-9.839 3.645-17.729 10.868-7.89 7.222-7.031 6.35-11.785 16.148-4.754 9.798-4.66 9.053-6.893 20.284-2.232 11.232-2.47 12.362-5.41 22.469-2.942 10.107-3.318 13.965-6.975 20.092-3.656 6.126-2.394 6.64-11.667 11.143-9.273 4.503-22.99 5.687-22.99 5.687z" fill-rule="evenodd"/>
</svg>
