<svg width="256" height="256" xmlns="http://www.w3.org/2000/svg">
    <path d="M80 203.996A4.002 4.002 0 0 1 75.996 208H52.004A4.002 4.002 0 0 1 48 203.996v-23.992A4.002 4.002 0 0 1 52.004 176h23.992A4.002 4.002 0 0 1 80 180.004v23.992zm16-64A4.002 4.002 0 0 1 91.996 144H68.004A4.002 4.002 0 0 1 64 139.996v-23.992A4.002 4.002 0 0 1 68.004 112h23.992A4.002 4.002 0 0 1 96 116.004v23.992zm16-64A4.002 4.002 0 0 1 107.996 80H84.004A4.002 4.002 0 0 1 80 75.996V52.004A4.002 4.002 0 0 1 84.004 48h23.992A4.002 4.002 0 0 1 112 52.004v23.992zm64 0A4.002 4.002 0 0 1 171.996 80h-23.992A4.002 4.002 0 0 1 144 75.996V52.004A4.002 4.002 0 0 1 148.004 48h23.992A4.002 4.002 0 0 1 176 52.004v23.992zm16 64a4.002 4.002 0 0 1-4.004 4.004h-23.992a4.002 4.002 0 0 1-4.004-4.004v-23.992a4.002 4.002 0 0 1 4.004-4.004h23.992a4.002 4.002 0 0 1 4.004 4.004v23.992zm16 64a4.002 4.002 0 0 1-4.004 4.004h-23.992a4.002 4.002 0 0 1-4.004-4.004v-23.992a4.002 4.002 0 0 1 4.004-4.004h23.992a4.002 4.002 0 0 1 4.004 4.004v23.992z" fill-rule="evenodd"/>
</svg>
