<svg width="256" height="256" xmlns="http://www.w3.org/2000/svg">
    <path d="M96 203.996A4.002 4.002 0 0 1 91.996 208H68.004A4.002 4.002 0 0 1 64 203.996v-23.992A4.002 4.002 0 0 1 68.004 176h23.992A4.002 4.002 0 0 1 96 180.004v23.992zm0-64A4.002 4.002 0 0 1 91.996 144H68.004A4.002 4.002 0 0 1 64 139.996v-23.992A4.002 4.002 0 0 1 68.004 112h23.992A4.002 4.002 0 0 1 96 116.004v23.992zm0-64A4.002 4.002 0 0 1 91.996 80H68.004A4.002 4.002 0 0 1 64 75.996V52.004A4.002 4.002 0 0 1 68.004 48h23.992A4.002 4.002 0 0 1 96 52.004v23.992zm64 0A4.002 4.002 0 0 0 164.004 80h23.992A4.002 4.002 0 0 0 192 75.996V52.004A4.002 4.002 0 0 0 187.996 48h-23.992A4.002 4.002 0 0 0 160 52.004v23.992zm0 64a4.002 4.002 0 0 0 4.004 4.004h23.992a4.002 4.002 0 0 0 4.004-4.004v-23.992a4.002 4.002 0 0 0-4.004-4.004h-23.992a4.002 4.002 0 0 0-4.004 4.004v23.992zm0 64a4.002 4.002 0 0 0 4.004 4.004h23.992a4.002 4.002 0 0 0 4.004-4.004v-23.992a4.002 4.002 0 0 0-4.004-4.004h-23.992a4.002 4.002 0 0 0-4.004 4.004v23.992z" fill-rule="evenodd"/>
</svg>
