<svg width="256" height="256" xmlns="http://www.w3.org/2000/svg">
    <g fill-rule="evenodd">
        <path d="M109.533 197.602a1.887 1.887 0 0 1-.034 2.76l-7.583 7.066a4.095 4.095 0 0 1-5.714-.152l-32.918-34.095c-1.537-1.592-1.54-4.162-.002-5.746l33.1-34.092c1.536-1.581 4.11-1.658 5.74-.18l7.655 6.94c.82.743.833 1.952.02 2.708l-21.11 19.659s53.036.129 71.708.064c18.672-.064 33.437-16.973 33.437-34.7 0-7.214-5.578-17.64-5.578-17.64-.498-.99-.273-2.444.483-3.229l8.61-8.94c.764-.794 1.772-.632 2.242.364 0 0 9.212 18.651 9.212 28.562 0 28.035-21.765 50.882-48.533 50.882-26.769 0-70.921.201-70.921.201l20.186 19.568z"/>
        <path d="M144.398 58.435a1.887 1.887 0 0 1 .034-2.76l7.583-7.066a4.095 4.095 0 0 1 5.714.152l32.918 34.095c1.537 1.592 1.54 4.162.002 5.746l-33.1 34.092c-1.536 1.581-4.11 1.658-5.74.18l-7.656-6.94c-.819-.743-.832-1.952-.02-2.708l21.111-19.659s-53.036-.129-71.708-.064c-18.672.064-33.437 16.973-33.437 34.7 0 7.214 5.578 17.64 5.578 17.64.498.99.273 2.444-.483 3.229l-8.61 8.94c-.764.794-1.772.632-2.242-.364 0 0-9.212-18.65-9.212-28.562 0-28.035 21.765-50.882 48.533-50.882 26.769 0 70.921-.201 70.921-.201l-20.186-19.568z"/>
        <path d="M127.992 104.543l6.53.146c1.105.025 2.013.945 2.027 2.037l.398 30.313a1.97 1.97 0 0 0 2.032 1.94l4.104-.103a1.951 1.951 0 0 1 2.01 1.958l.01 4.838a2.015 2.015 0 0 1-1.99 2.024l-21.14.147a1.982 1.982 0 0 1-1.994-1.983l-.002-4.71c0-1.103.897-1.997 1.996-1.997h4.254a2.018 2.018 0 0 0 2.016-1.994l.169-16.966-6.047 5.912-6.118-7.501 11.745-14.061z" stroke="#979797"/>
    </g>
</svg>
