<svg width="256" height="256" xmlns="http://www.w3.org/2000/svg">
    <g fill-rule="evenodd">
        <path d="M93.598 47.311c8.113 0 77.093-.284 77.093-.284 2.206-.009 5.48.779 7.306 1.76 0 0-1.457-1.508 0 0 1.306 1.352 28.798 29.707 29.336 30.28.539.571 0 0 0 0 .817 1.577 1.44 5.043 1.44 7.253v76.614c0 5.731-6.862 13.448-13.418 13.448h-8.596v25.038c0 4.737-1.55 8.014-8.762 8.014H57.102c-7.796 0-10.13-3.07-10.13-8.666V82.318c0-7.65 5.155-12.205 9.15-12.205h23.726s.043-8.475.043-9.642c0-6.908 5.595-13.16 13.707-13.16zM77.704 84.577H67.88a3.992 3.992 0 0 0-3.993 3.996v99.795a3.957 3.957 0 0 0 3.996 3.969l103.782-.727v-15.182s-79.998.36-85.653.36c-5.655 0-5.655-6.424-5.655-6.424l-.633-83.793a2.026 2.026 0 0 0-2.019-1.994zm17.463-19.472v92.24a4.006 4.006 0 0 0 4 4.008l90.162.105a3.987 3.987 0 0 0 3.993-4l-.113-69.98c-.002-1.1-.62-2.641-1.38-3.44L171.58 62.755s-.379.448-.379 1.554v26.053c0 2.702-4.752 7.397-8.15 7.397h-48.898c-3.725 0-7.74-3.815-7.74-7.397V64.941a1.966 1.966 0 0 0-1.998-1.964l-7.252.095a2.04 2.04 0 0 0-1.997 2.033zm23.289-2.61v21.743c0 1.112.9 1.998 2.01 1.998h35.408c1.112 0 2.01-.894 2.01-1.998V62.494c0-1.112-.9-1.998-2.01-1.998h-35.409a2.003 2.003 0 0 0-2.009 1.998z"/>
        <path d="M144.073 105.18c13.095.206 25.771 11.676 25.771 25.676 0 14-11.831 25.72-25.11 25.511-13.278-.21-26.496-11.948-26.496-25.527 0-13.58 12.739-25.867 25.835-25.66zm-13.082 25.337c0 7.831 6.222 13.663 13.13 13.631 6.909-.031 12.767-5.768 12.801-13.507.035-7.738-6.24-13.231-12.94-13.231-6.7 0-12.99 5.276-12.99 13.107z"/>
    </g>
</svg>
