<svg width="256" height="256" xmlns="http://www.w3.org/2000/svg">
    <path d="M80 52.004A4.002 4.002 0 0 0 75.996 48H52.004A4.002 4.002 0 0 0 48 52.004v23.992A4.002 4.002 0 0 0 52.004 80h23.992A4.002 4.002 0 0 0 80 75.996V52.004zm32 32A4.002 4.002 0 0 0 107.996 80H84.004A4.002 4.002 0 0 0 80 84.004v23.992A4.002 4.002 0 0 0 84.004 112h23.992a4.002 4.002 0 0 0 4.004-4.004V84.004zm32 32a4.002 4.002 0 0 0-4.004-4.004h-23.992a4.002 4.002 0 0 0-4.004 4.004v23.992a4.002 4.002 0 0 0 4.004 4.004h23.992a4.002 4.002 0 0 0 4.004-4.004v-23.992zm32 32a4.002 4.002 0 0 0-4.004-4.004h-23.992a4.002 4.002 0 0 0-4.004 4.004v23.992a4.002 4.002 0 0 0 4.004 4.004h23.992a4.002 4.002 0 0 0 4.004-4.004v-23.992zm32 32a4.002 4.002 0 0 0-4.004-4.004h-23.992a4.002 4.002 0 0 0-4.004 4.004v23.992a4.002 4.002 0 0 0 4.004 4.004h23.992a4.002 4.002 0 0 0 4.004-4.004v-23.992z" fill-rule="evenodd"/>
</svg>
