<svg width="256" height="256" xmlns="http://www.w3.org/2000/svg">
    <path d="M129.175 107.005A31.85 31.85 0 0 1 112 112a32.54 32.54 0 0 1-1.503-.035l.077.035-12.804 37.383C106.35 155.123 112 164.902 112 176c0 17.673-14.327 32-32 32-17.673 0-32-14.327-32-32 0-17.673 14.327-32 32-32 .87 0 1.731.035 2.583.103l12.14-37.163C85.867 101.248 80 91.31 80 80c0-17.673 14.327-32 32-32 17.673 0 32 14.327 32 32 0 5.51-1.393 10.696-3.846 15.224l19.42 21.308A31.851 31.851 0 0 1 176 112c17.673 0 32 14.327 32 32 0 17.673-14.327 32-32 32-17.673 0-32-14.327-32-32a31.857 31.857 0 0 1 3.92-15.36l-18.745-21.635zM80 192c8.837 0 16-7.163 16-16s-7.163-16-16-16-16 7.163-16 16 7.163 16 16 16zm32-96c8.837 0 16-7.163 16-16s-7.163-16-16-16-16 7.163-16 16 7.163 16 16 16zm64 64c8.837 0 16-7.163 16-16s-7.163-16-16-16-16 7.163-16 16 7.163 16 16 16z" fill-rule="evenodd"/>
</svg>
